<?xml version="1.0" encoding="utf-8" standalone="no"?>
<!DOCTYPE svg PUBLIC "-//W3C//DTD SVG 1.1//EN"
  "http://www.w3.org/Graphics/SVG/1.1/DTD/svg11.dtd">
<svg xmlns:xlink="http://www.w3.org/1999/xlink" width="864pt" height="504pt" viewBox="0 0 864 504" xmlns="http://www.w3.org/2000/svg" version="1.1">
 <metadata>
  <rdf:RDF xmlns:dc="http://purl.org/dc/elements/1.1/" xmlns:cc="http://creativecommons.org/ns#" xmlns:rdf="http://www.w3.org/1999/02/22-rdf-syntax-ns#">
   <cc:Work>
    <dc:type rdf:resource="http://purl.org/dc/dcmitype/StillImage"/>
    <dc:date>2025-07-17T14:14:36.816895</dc:date>
    <dc:format>image/svg+xml</dc:format>
    <dc:creator>
     <cc:Agent>
      <dc:title>Matplotlib v3.10.0, https://matplotlib.org/</dc:title>
     </cc:Agent>
    </dc:creator>
   </cc:Work>
  </rdf:RDF>
 </metadata>
 <defs>
  <style type="text/css">*{stroke-linejoin: round; stroke-linecap: butt}</style>
 </defs>
 <g id="figure_1">
  <g id="patch_1">
   <path d="M 0 504 
L 864 504 
L 864 0 
L 0 0 
z
" style="fill: #ffffff"/>
  </g>
  <g id="axes_1">
   <g id="patch_2">
    <path d="M 50.6 459.16 
L 853.2 459.16 
L 853.2 10.8 
L 50.6 10.8 
z
" style="fill: #ffffff"/>
   </g>
   <g id="FillBetweenPolyCollection_1">
    <defs>
     <path id="ma9921df0f2" d="M 87.081818 -471.849524 
L 87.081818 -44.84 
L 101.674545 -44.84 
L 101.674545 -44.84 
L 116.267273 -44.84 
L 116.267273 -44.84 
L 130.86 -44.84 
L 130.86 -44.84 
L 145.452727 -44.84 
L 145.452727 -44.84 
L 160.045455 -44.84 
L 160.045455 -44.84 
L 174.638182 -44.84 
L 174.638182 -44.84 
L 189.230909 -44.84 
L 189.230909 -44.84 
L 203.823636 -44.84 
L 203.823636 -44.84 
L 218.416364 -44.84 
L 218.416364 -44.84 
L 233.009091 -44.84 
L 233.009091 -44.84 
L 247.601818 -44.84 
L 247.601818 -44.84 
L 262.194545 -44.84 
L 262.194545 -44.84 
L 276.787273 -44.84 
L 276.787273 -44.84 
L 291.38 -44.84 
L 291.38 -44.84 
L 305.972727 -44.84 
L 305.972727 -44.84 
L 320.565455 -44.84 
L 320.565455 -44.84 
L 335.158182 -44.84 
L 335.158182 -44.84 
L 349.750909 -44.84 
L 349.750909 -44.84 
L 364.343636 -44.84 
L 364.343636 -44.84 
L 378.936364 -44.84 
L 378.936364 -44.84 
L 393.529091 -44.84 
L 393.529091 -44.84 
L 408.121818 -44.84 
L 408.121818 -44.84 
L 422.714545 -44.84 
L 422.714545 -44.84 
L 437.307273 -44.84 
L 437.307273 -44.84 
L 451.9 -44.84 
L 451.9 -44.84 
L 466.492727 -44.84 
L 466.492727 -44.84 
L 481.085455 -44.84 
L 481.085455 -44.84 
L 495.678182 -44.84 
L 495.678182 -44.84 
L 510.270909 -44.84 
L 510.270909 -44.84 
L 524.863636 -44.84 
L 524.863636 -44.84 
L 539.456364 -44.84 
L 539.456364 -44.84 
L 554.049091 -44.84 
L 554.049091 -44.84 
L 568.641818 -44.84 
L 568.641818 -44.84 
L 583.234545 -44.84 
L 583.234545 -44.84 
L 597.827273 -44.84 
L 597.827273 -44.84 
L 612.42 -44.84 
L 612.42 -44.84 
L 627.012727 -44.84 
L 627.012727 -44.84 
L 641.605455 -44.84 
L 641.605455 -44.84 
L 656.198182 -44.84 
L 656.198182 -44.84 
L 670.790909 -44.84 
L 670.790909 -44.84 
L 685.383636 -44.84 
L 685.383636 -44.84 
L 699.976364 -44.84 
L 699.976364 -44.84 
L 714.569091 -44.84 
L 714.569091 -44.84 
L 729.161818 -44.84 
L 729.161818 -44.84 
L 743.754545 -44.84 
L 743.754545 -44.84 
L 758.347273 -44.84 
L 758.347273 -44.84 
L 772.94 -44.84 
L 772.94 -44.84 
L 787.532727 -44.84 
L 787.532727 -44.84 
L 802.125455 -44.84 
L 802.125455 -44.84 
L 816.718182 -44.84 
L 816.718182 -44.84 
L 816.718182 -44.84 
L 816.718182 -44.84 
L 816.718182 -44.84 
L 802.125455 -44.84 
L 802.125455 -44.84 
L 787.532727 -44.84 
L 787.532727 -44.84 
L 772.94 -44.84 
L 772.94 -44.84 
L 758.347273 -44.84 
L 758.347273 -44.84 
L 743.754545 -44.84 
L 743.754545 -44.84 
L 729.161818 -44.84 
L 729.161818 -44.84 
L 714.569091 -44.84 
L 714.569091 -44.84 
L 699.976364 -44.84 
L 699.976364 -44.84 
L 685.383636 -44.84 
L 685.383636 -44.84 
L 670.790909 -44.84 
L 670.790909 -44.84 
L 656.198182 -44.84 
L 656.198182 -44.84 
L 641.605455 -44.84 
L 641.605455 -44.84 
L 627.012727 -44.84 
L 627.012727 -45.394558 
L 612.42 -45.394558 
L 612.42 -44.84 
L 597.827273 -44.84 
L 597.827273 -44.84 
L 583.234545 -44.84 
L 583.234545 -44.84 
L 568.641818 -44.84 
L 568.641818 -44.84 
L 554.049091 -44.84 
L 554.049091 -44.84 
L 539.456364 -44.84 
L 539.456364 -44.84 
L 524.863636 -44.84 
L 524.863636 -44.84 
L 510.270909 -44.84 
L 510.270909 -44.84 
L 495.678182 -44.84 
L 495.678182 -44.84 
L 481.085455 -44.84 
L 481.085455 -44.84 
L 466.492727 -44.84 
L 466.492727 -44.84 
L 451.9 -44.84 
L 451.9 -44.84 
L 437.307273 -44.84 
L 437.307273 -44.84 
L 422.714545 -44.84 
L 422.714545 -45.394558 
L 408.121818 -45.394558 
L 408.121818 -44.84 
L 393.529091 -44.84 
L 393.529091 -44.84 
L 378.936364 -44.84 
L 378.936364 -44.84 
L 364.343636 -44.84 
L 364.343636 -45.394558 
L 349.750909 -45.394558 
L 349.750909 -44.84 
L 335.158182 -44.84 
L 335.158182 -44.84 
L 320.565455 -44.84 
L 320.565455 -44.84 
L 305.972727 -44.84 
L 305.972727 -45.394558 
L 291.38 -45.394558 
L 291.38 -45.949116 
L 276.787273 -45.949116 
L 276.787273 -45.949116 
L 262.194545 -45.949116 
L 262.194545 -45.949116 
L 247.601818 -45.949116 
L 247.601818 -45.949116 
L 233.009091 -45.949116 
L 233.009091 -48.167347 
L 218.416364 -48.167347 
L 218.416364 -45.949116 
L 203.823636 -45.949116 
L 203.823636 -48.721905 
L 189.230909 -48.721905 
L 189.230909 -49.276463 
L 174.638182 -49.276463 
L 174.638182 -53.158367 
L 160.045455 -53.158367 
L 160.045455 -67.022313 
L 145.452727 -67.022313 
L 145.452727 -64.804082 
L 130.86 -64.804082 
L 130.86 -63.694966 
L 116.267273 -63.694966 
L 116.267273 -83.659048 
L 101.674545 -83.659048 
L 101.674545 -471.849524 
L 87.081818 -471.849524 
z
" style="stroke: #2ca02c"/>
    </defs>
    <g clip-path="url(#pb2d22b8362)">
     <use xlink:href="#ma9921df0f2" x="0" y="504" style="fill: #2ca02c; fill-opacity: 0.25; stroke: #2ca02c"/>
    </g>
   </g>
   <g id="FillBetweenPolyCollection_2">
    <defs>
     <path id="m5d89c587ec" d="M 87.081818 -460.758367 
L 87.081818 -44.84 
L 101.674545 -44.84 
L 101.674545 -44.84 
L 116.267273 -44.84 
L 116.267273 -44.84 
L 130.86 -44.84 
L 130.86 -44.84 
L 145.452727 -44.84 
L 145.452727 -44.84 
L 160.045455 -44.84 
L 160.045455 -44.84 
L 174.638182 -44.84 
L 174.638182 -44.84 
L 189.230909 -44.84 
L 189.230909 -44.84 
L 203.823636 -44.84 
L 203.823636 -44.84 
L 218.416364 -44.84 
L 218.416364 -44.84 
L 233.009091 -44.84 
L 233.009091 -44.84 
L 247.601818 -44.84 
L 247.601818 -44.84 
L 262.194545 -44.84 
L 262.194545 -44.84 
L 276.787273 -44.84 
L 276.787273 -44.84 
L 291.38 -44.84 
L 291.38 -44.84 
L 305.972727 -44.84 
L 305.972727 -44.84 
L 320.565455 -44.84 
L 320.565455 -44.84 
L 335.158182 -44.84 
L 335.158182 -44.84 
L 349.750909 -44.84 
L 349.750909 -44.84 
L 364.343636 -44.84 
L 364.343636 -44.84 
L 378.936364 -44.84 
L 378.936364 -44.84 
L 393.529091 -44.84 
L 393.529091 -44.84 
L 408.121818 -44.84 
L 408.121818 -44.84 
L 422.714545 -44.84 
L 422.714545 -44.84 
L 437.307273 -44.84 
L 437.307273 -44.84 
L 451.9 -44.84 
L 451.9 -44.84 
L 466.492727 -44.84 
L 466.492727 -44.84 
L 481.085455 -44.84 
L 481.085455 -44.84 
L 495.678182 -44.84 
L 495.678182 -44.84 
L 510.270909 -44.84 
L 510.270909 -44.84 
L 524.863636 -44.84 
L 524.863636 -44.84 
L 539.456364 -44.84 
L 539.456364 -44.84 
L 554.049091 -44.84 
L 554.049091 -44.84 
L 568.641818 -44.84 
L 568.641818 -44.84 
L 583.234545 -44.84 
L 583.234545 -44.84 
L 597.827273 -44.84 
L 597.827273 -44.84 
L 612.42 -44.84 
L 612.42 -44.84 
L 627.012727 -44.84 
L 627.012727 -44.84 
L 641.605455 -44.84 
L 641.605455 -44.84 
L 656.198182 -44.84 
L 656.198182 -44.84 
L 670.790909 -44.84 
L 670.790909 -44.84 
L 685.383636 -44.84 
L 685.383636 -44.84 
L 699.976364 -44.84 
L 699.976364 -44.84 
L 714.569091 -44.84 
L 714.569091 -44.84 
L 729.161818 -44.84 
L 729.161818 -44.84 
L 743.754545 -44.84 
L 743.754545 -44.84 
L 758.347273 -44.84 
L 758.347273 -44.84 
L 772.94 -44.84 
L 772.94 -44.84 
L 787.532727 -44.84 
L 787.532727 -44.84 
L 802.125455 -44.84 
L 802.125455 -44.84 
L 816.718182 -44.84 
L 816.718182 -44.84 
L 816.718182 -45.394558 
L 816.718182 -45.394558 
L 816.718182 -45.394558 
L 802.125455 -45.394558 
L 802.125455 -44.84 
L 787.532727 -44.84 
L 787.532727 -44.84 
L 772.94 -44.84 
L 772.94 -44.84 
L 758.347273 -44.84 
L 758.347273 -44.84 
L 743.754545 -44.84 
L 743.754545 -44.84 
L 729.161818 -44.84 
L 729.161818 -44.84 
L 714.569091 -44.84 
L 714.569091 -44.84 
L 699.976364 -44.84 
L 699.976364 -44.84 
L 685.383636 -44.84 
L 685.383636 -45.394558 
L 670.790909 -45.394558 
L 670.790909 -44.84 
L 656.198182 -44.84 
L 656.198182 -44.84 
L 641.605455 -44.84 
L 641.605455 -44.84 
L 627.012727 -44.84 
L 627.012727 -45.394558 
L 612.42 -45.394558 
L 612.42 -44.84 
L 597.827273 -44.84 
L 597.827273 -44.84 
L 583.234545 -44.84 
L 583.234545 -44.84 
L 568.641818 -44.84 
L 568.641818 -44.84 
L 554.049091 -44.84 
L 554.049091 -45.394558 
L 539.456364 -45.394558 
L 539.456364 -44.84 
L 524.863636 -44.84 
L 524.863636 -44.84 
L 510.270909 -44.84 
L 510.270909 -44.84 
L 495.678182 -44.84 
L 495.678182 -45.394558 
L 481.085455 -45.394558 
L 481.085455 -44.84 
L 466.492727 -44.84 
L 466.492727 -44.84 
L 451.9 -44.84 
L 451.9 -44.84 
L 437.307273 -44.84 
L 437.307273 -45.394558 
L 422.714545 -45.394558 
L 422.714545 -44.84 
L 408.121818 -44.84 
L 408.121818 -44.84 
L 393.529091 -44.84 
L 393.529091 -44.84 
L 378.936364 -44.84 
L 378.936364 -44.84 
L 364.343636 -44.84 
L 364.343636 -45.394558 
L 349.750909 -45.394558 
L 349.750909 -45.394558 
L 335.158182 -45.394558 
L 335.158182 -44.84 
L 320.565455 -44.84 
L 320.565455 -44.84 
L 305.972727 -44.84 
L 305.972727 -45.394558 
L 291.38 -45.394558 
L 291.38 -44.84 
L 276.787273 -44.84 
L 276.787273 -45.949116 
L 262.194545 -45.949116 
L 262.194545 -47.612789 
L 247.601818 -47.612789 
L 247.601818 -45.949116 
L 233.009091 -45.949116 
L 233.009091 -48.167347 
L 218.416364 -48.167347 
L 218.416364 -46.503673 
L 203.823636 -46.503673 
L 203.823636 -53.158367 
L 189.230909 -53.158367 
L 189.230909 -50.385578 
L 174.638182 -50.385578 
L 174.638182 -53.158367 
L 160.045455 -53.158367 
L 160.045455 -69.240544 
L 145.452727 -69.240544 
L 145.452727 -59.258503 
L 130.86 -59.258503 
L 130.86 -73.677007 
L 116.267273 -73.677007 
L 116.267273 -78.668027 
L 101.674545 -78.668027 
L 101.674545 -460.758367 
L 87.081818 -460.758367 
z
" style="stroke: #ff7f0e"/>
    </defs>
    <g clip-path="url(#pb2d22b8362)">
     <use xlink:href="#m5d89c587ec" x="0" y="504" style="fill: #ff7f0e; fill-opacity: 0.25; stroke: #ff7f0e"/>
    </g>
   </g>
   <g id="FillBetweenPolyCollection_3">
    <defs>
     <path id="mb0250b9adf" d="M 87.081818 -460.758367 
L 87.081818 -44.84 
L 101.674545 -44.84 
L 101.674545 -44.84 
L 116.267273 -44.84 
L 116.267273 -44.84 
L 130.86 -44.84 
L 130.86 -44.84 
L 145.452727 -44.84 
L 145.452727 -44.84 
L 160.045455 -44.84 
L 160.045455 -44.84 
L 174.638182 -44.84 
L 174.638182 -44.84 
L 189.230909 -44.84 
L 189.230909 -44.84 
L 203.823636 -44.84 
L 203.823636 -44.84 
L 218.416364 -44.84 
L 218.416364 -44.84 
L 233.009091 -44.84 
L 233.009091 -44.84 
L 247.601818 -44.84 
L 247.601818 -44.84 
L 262.194545 -44.84 
L 262.194545 -44.84 
L 276.787273 -44.84 
L 276.787273 -44.84 
L 291.38 -44.84 
L 291.38 -44.84 
L 305.972727 -44.84 
L 305.972727 -44.84 
L 320.565455 -44.84 
L 320.565455 -44.84 
L 335.158182 -44.84 
L 335.158182 -44.84 
L 349.750909 -44.84 
L 349.750909 -44.84 
L 364.343636 -44.84 
L 364.343636 -44.84 
L 378.936364 -44.84 
L 378.936364 -44.84 
L 393.529091 -44.84 
L 393.529091 -44.84 
L 408.121818 -44.84 
L 408.121818 -44.84 
L 422.714545 -44.84 
L 422.714545 -44.84 
L 437.307273 -44.84 
L 437.307273 -44.84 
L 451.9 -44.84 
L 451.9 -44.84 
L 466.492727 -44.84 
L 466.492727 -44.84 
L 481.085455 -44.84 
L 481.085455 -44.84 
L 495.678182 -44.84 
L 495.678182 -44.84 
L 510.270909 -44.84 
L 510.270909 -44.84 
L 524.863636 -44.84 
L 524.863636 -44.84 
L 539.456364 -44.84 
L 539.456364 -44.84 
L 554.049091 -44.84 
L 554.049091 -44.84 
L 568.641818 -44.84 
L 568.641818 -44.84 
L 583.234545 -44.84 
L 583.234545 -44.84 
L 597.827273 -44.84 
L 597.827273 -44.84 
L 612.42 -44.84 
L 612.42 -44.84 
L 627.012727 -44.84 
L 627.012727 -44.84 
L 641.605455 -44.84 
L 641.605455 -44.84 
L 656.198182 -44.84 
L 656.198182 -44.84 
L 670.790909 -44.84 
L 670.790909 -44.84 
L 685.383636 -44.84 
L 685.383636 -44.84 
L 699.976364 -44.84 
L 699.976364 -44.84 
L 714.569091 -44.84 
L 714.569091 -44.84 
L 729.161818 -44.84 
L 729.161818 -44.84 
L 743.754545 -44.84 
L 743.754545 -44.84 
L 758.347273 -44.84 
L 758.347273 -44.84 
L 772.94 -44.84 
L 772.94 -44.84 
L 787.532727 -44.84 
L 787.532727 -44.84 
L 802.125455 -44.84 
L 802.125455 -44.84 
L 816.718182 -44.84 
L 816.718182 -44.84 
L 816.718182 -44.84 
L 816.718182 -44.84 
L 816.718182 -44.84 
L 802.125455 -44.84 
L 802.125455 -44.84 
L 787.532727 -44.84 
L 787.532727 -44.84 
L 772.94 -44.84 
L 772.94 -44.84 
L 758.347273 -44.84 
L 758.347273 -44.84 
L 743.754545 -44.84 
L 743.754545 -44.84 
L 729.161818 -44.84 
L 729.161818 -44.84 
L 714.569091 -44.84 
L 714.569091 -44.84 
L 699.976364 -44.84 
L 699.976364 -44.84 
L 685.383636 -44.84 
L 685.383636 -44.84 
L 670.790909 -44.84 
L 670.790909 -44.84 
L 656.198182 -44.84 
L 656.198182 -44.84 
L 641.605455 -44.84 
L 641.605455 -44.84 
L 627.012727 -44.84 
L 627.012727 -45.394558 
L 612.42 -45.394558 
L 612.42 -44.84 
L 597.827273 -44.84 
L 597.827273 -44.84 
L 583.234545 -44.84 
L 583.234545 -44.84 
L 568.641818 -44.84 
L 568.641818 -44.84 
L 554.049091 -44.84 
L 554.049091 -44.84 
L 539.456364 -44.84 
L 539.456364 -44.84 
L 524.863636 -44.84 
L 524.863636 -44.84 
L 510.270909 -44.84 
L 510.270909 -44.84 
L 495.678182 -44.84 
L 495.678182 -44.84 
L 481.085455 -44.84 
L 481.085455 -44.84 
L 466.492727 -44.84 
L 466.492727 -44.84 
L 451.9 -44.84 
L 451.9 -44.84 
L 437.307273 -44.84 
L 437.307273 -44.84 
L 422.714545 -44.84 
L 422.714545 -45.394558 
L 408.121818 -45.394558 
L 408.121818 -44.84 
L 393.529091 -44.84 
L 393.529091 -44.84 
L 378.936364 -44.84 
L 378.936364 -44.84 
L 364.343636 -44.84 
L 364.343636 -45.394558 
L 349.750909 -45.394558 
L 349.750909 -44.84 
L 335.158182 -44.84 
L 335.158182 -44.84 
L 320.565455 -44.84 
L 320.565455 -44.84 
L 305.972727 -44.84 
L 305.972727 -45.394558 
L 291.38 -45.394558 
L 291.38 -46.503673 
L 276.787273 -46.503673 
L 276.787273 -44.84 
L 262.194545 -44.84 
L 262.194545 -44.84 
L 247.601818 -44.84 
L 247.601818 -45.949116 
L 233.009091 -45.949116 
L 233.009091 -46.503673 
L 218.416364 -46.503673 
L 218.416364 -48.167347 
L 203.823636 -48.167347 
L 203.823636 -47.612789 
L 189.230909 -47.612789 
L 189.230909 -49.276463 
L 174.638182 -49.276463 
L 174.638182 -47.612789 
L 160.045455 -47.612789 
L 160.045455 -69.240544 
L 145.452727 -69.240544 
L 145.452727 -60.367619 
L 130.86 -60.367619 
L 130.86 -72.567891 
L 116.267273 -72.567891 
L 116.267273 -95.85932 
L 101.674545 -95.85932 
L 101.674545 -460.758367 
L 87.081818 -460.758367 
z
" style="stroke: #1f77b4"/>
    </defs>
    <g clip-path="url(#pb2d22b8362)">
     <use xlink:href="#mb0250b9adf" x="0" y="504" style="fill: #1f77b4; fill-opacity: 0.25; stroke: #1f77b4"/>
    </g>
   </g>
   <g id="matplotlib.axis_1">
    <g id="xtick_1">
     <g id="line2d_1">
      <defs>
       <path id="mb0ff5005e6" d="M 0 0 
L 0 3.5 
" style="stroke: #000000; stroke-width: 0.8"/>
      </defs>
      <g>
       <use xlink:href="#mb0ff5005e6" x="51.198063" y="459.16" style="stroke: #000000; stroke-width: 0.8"/>
      </g>
     </g>
     <g id="text_1">
      <!-- 0 -->
      <g transform="translate(48.016813 473.758437) scale(0.1 -0.1)">
       <defs>
        <path id="DejaVuSans-30" d="M 2034 4250 
Q 1547 4250 1301 3770 
Q 1056 3291 1056 2328 
Q 1056 1369 1301 889 
Q 1547 409 2034 409 
Q 2525 409 2770 889 
Q 3016 1369 3016 2328 
Q 3016 3291 2770 3770 
Q 2525 4250 2034 4250 
z
M 2034 4750 
Q 2819 4750 3233 4129 
Q 3647 3509 3647 2328 
Q 3647 1150 3233 529 
Q 2819 -91 2034 -91 
Q 1250 -91 836 529 
Q 422 1150 422 2328 
Q 422 3509 836 4129 
Q 1250 4750 2034 4750 
z
" transform="scale(0.015625)"/>
       </defs>
       <use xlink:href="#DejaVuSans-30"/>
      </g>
     </g>
    </g>
    <g id="xtick_2">
     <g id="line2d_2">
      <g>
       <use xlink:href="#mb0ff5005e6" x="170.810581" y="459.16" style="stroke: #000000; stroke-width: 0.8"/>
      </g>
     </g>
     <g id="text_2">
      <!-- 10 -->
      <g transform="translate(164.448081 473.758437) scale(0.1 -0.1)">
       <defs>
        <path id="DejaVuSans-31" d="M 794 531 
L 1825 531 
L 1825 4091 
L 703 3866 
L 703 4441 
L 1819 4666 
L 2450 4666 
L 2450 531 
L 3481 531 
L 3481 0 
L 794 0 
L 794 531 
z
" transform="scale(0.015625)"/>
       </defs>
       <use xlink:href="#DejaVuSans-31"/>
       <use xlink:href="#DejaVuSans-30" transform="translate(63.623047 0)"/>
      </g>
     </g>
    </g>
    <g id="xtick_3">
     <g id="line2d_3">
      <g>
       <use xlink:href="#mb0ff5005e6" x="290.4231" y="459.16" style="stroke: #000000; stroke-width: 0.8"/>
      </g>
     </g>
     <g id="text_3">
      <!-- 20 -->
      <g transform="translate(284.0606 473.758437) scale(0.1 -0.1)">
       <defs>
        <path id="DejaVuSans-32" d="M 1228 531 
L 3431 531 
L 3431 0 
L 469 0 
L 469 531 
Q 828 903 1448 1529 
Q 2069 2156 2228 2338 
Q 2531 2678 2651 2914 
Q 2772 3150 2772 3378 
Q 2772 3750 2511 3984 
Q 2250 4219 1831 4219 
Q 1534 4219 1204 4116 
Q 875 4013 500 3803 
L 500 4441 
Q 881 4594 1212 4672 
Q 1544 4750 1819 4750 
Q 2544 4750 2975 4387 
Q 3406 4025 3406 3419 
Q 3406 3131 3298 2873 
Q 3191 2616 2906 2266 
Q 2828 2175 2409 1742 
Q 1991 1309 1228 531 
z
" transform="scale(0.015625)"/>
       </defs>
       <use xlink:href="#DejaVuSans-32"/>
       <use xlink:href="#DejaVuSans-30" transform="translate(63.623047 0)"/>
      </g>
     </g>
    </g>
    <g id="xtick_4">
     <g id="line2d_4">
      <g>
       <use xlink:href="#mb0ff5005e6" x="410.035618" y="459.16" style="stroke: #000000; stroke-width: 0.8"/>
      </g>
     </g>
     <g id="text_4">
      <!-- 30 -->
      <g transform="translate(403.673118 473.758437) scale(0.1 -0.1)">
       <defs>
        <path id="DejaVuSans-33" d="M 2597 2516 
Q 3050 2419 3304 2112 
Q 3559 1806 3559 1356 
Q 3559 666 3084 287 
Q 2609 -91 1734 -91 
Q 1441 -91 1130 -33 
Q 819 25 488 141 
L 488 750 
Q 750 597 1062 519 
Q 1375 441 1716 441 
Q 2309 441 2620 675 
Q 2931 909 2931 1356 
Q 2931 1769 2642 2001 
Q 2353 2234 1838 2234 
L 1294 2234 
L 1294 2753 
L 1863 2753 
Q 2328 2753 2575 2939 
Q 2822 3125 2822 3475 
Q 2822 3834 2567 4026 
Q 2313 4219 1838 4219 
Q 1578 4219 1281 4162 
Q 984 4106 628 3988 
L 628 4550 
Q 988 4650 1302 4700 
Q 1616 4750 1894 4750 
Q 2613 4750 3031 4423 
Q 3450 4097 3450 3541 
Q 3450 3153 3228 2886 
Q 3006 2619 2597 2516 
z
" transform="scale(0.015625)"/>
       </defs>
       <use xlink:href="#DejaVuSans-33"/>
       <use xlink:href="#DejaVuSans-30" transform="translate(63.623047 0)"/>
      </g>
     </g>
    </g>
    <g id="xtick_5">
     <g id="line2d_5">
      <g>
       <use xlink:href="#mb0ff5005e6" x="529.648137" y="459.16" style="stroke: #000000; stroke-width: 0.8"/>
      </g>
     </g>
     <g id="text_5">
      <!-- 40 -->
      <g transform="translate(523.285637 473.758437) scale(0.1 -0.1)">
       <defs>
        <path id="DejaVuSans-34" d="M 2419 4116 
L 825 1625 
L 2419 1625 
L 2419 4116 
z
M 2253 4666 
L 3047 4666 
L 3047 1625 
L 3713 1625 
L 3713 1100 
L 3047 1100 
L 3047 0 
L 2419 0 
L 2419 1100 
L 313 1100 
L 313 1709 
L 2253 4666 
z
" transform="scale(0.015625)"/>
       </defs>
       <use xlink:href="#DejaVuSans-34"/>
       <use xlink:href="#DejaVuSans-30" transform="translate(63.623047 0)"/>
      </g>
     </g>
    </g>
    <g id="xtick_6">
     <g id="line2d_6">
      <g>
       <use xlink:href="#mb0ff5005e6" x="649.260656" y="459.16" style="stroke: #000000; stroke-width: 0.8"/>
      </g>
     </g>
     <g id="text_6">
      <!-- 50 -->
      <g transform="translate(642.898156 473.758437) scale(0.1 -0.1)">
       <defs>
        <path id="DejaVuSans-35" d="M 691 4666 
L 3169 4666 
L 3169 4134 
L 1269 4134 
L 1269 2991 
Q 1406 3038 1543 3061 
Q 1681 3084 1819 3084 
Q 2600 3084 3056 2656 
Q 3513 2228 3513 1497 
Q 3513 744 3044 326 
Q 2575 -91 1722 -91 
Q 1428 -91 1123 -41 
Q 819 9 494 109 
L 494 744 
Q 775 591 1075 516 
Q 1375 441 1709 441 
Q 2250 441 2565 725 
Q 2881 1009 2881 1497 
Q 2881 1984 2565 2268 
Q 2250 2553 1709 2553 
Q 1456 2553 1204 2497 
Q 953 2441 691 2322 
L 691 4666 
z
" transform="scale(0.015625)"/>
       </defs>
       <use xlink:href="#DejaVuSans-35"/>
       <use xlink:href="#DejaVuSans-30" transform="translate(63.623047 0)"/>
      </g>
     </g>
    </g>
    <g id="xtick_7">
     <g id="line2d_7">
      <g>
       <use xlink:href="#mb0ff5005e6" x="768.873174" y="459.16" style="stroke: #000000; stroke-width: 0.8"/>
      </g>
     </g>
     <g id="text_7">
      <!-- 60 -->
      <g transform="translate(762.510674 473.758437) scale(0.1 -0.1)">
       <defs>
        <path id="DejaVuSans-36" d="M 2113 2584 
Q 1688 2584 1439 2293 
Q 1191 2003 1191 1497 
Q 1191 994 1439 701 
Q 1688 409 2113 409 
Q 2538 409 2786 701 
Q 3034 994 3034 1497 
Q 3034 2003 2786 2293 
Q 2538 2584 2113 2584 
z
M 3366 4563 
L 3366 3988 
Q 3128 4100 2886 4159 
Q 2644 4219 2406 4219 
Q 1781 4219 1451 3797 
Q 1122 3375 1075 2522 
Q 1259 2794 1537 2939 
Q 1816 3084 2150 3084 
Q 2853 3084 3261 2657 
Q 3669 2231 3669 1497 
Q 3669 778 3244 343 
Q 2819 -91 2113 -91 
Q 1303 -91 875 529 
Q 447 1150 447 2328 
Q 447 3434 972 4092 
Q 1497 4750 2381 4750 
Q 2619 4750 2861 4703 
Q 3103 4656 3366 4563 
z
" transform="scale(0.015625)"/>
       </defs>
       <use xlink:href="#DejaVuSans-36"/>
       <use xlink:href="#DejaVuSans-30" transform="translate(63.623047 0)"/>
      </g>
     </g>
    </g>
    <g id="text_8">
     <!-- Duration (ms) -->
     <g transform="translate(410.2825 488.95625) scale(0.12 -0.12)">
      <defs>
       <path id="DejaVuSans-44" d="M 1259 4147 
L 1259 519 
L 2022 519 
Q 2988 519 3436 956 
Q 3884 1394 3884 2338 
Q 3884 3275 3436 3711 
Q 2988 4147 2022 4147 
L 1259 4147 
z
M 628 4666 
L 1925 4666 
Q 3281 4666 3915 4102 
Q 4550 3538 4550 2338 
Q 4550 1131 3912 565 
Q 3275 0 1925 0 
L 628 0 
L 628 4666 
z
" transform="scale(0.015625)"/>
       <path id="DejaVuSans-75" d="M 544 1381 
L 544 3500 
L 1119 3500 
L 1119 1403 
Q 1119 906 1312 657 
Q 1506 409 1894 409 
Q 2359 409 2629 706 
Q 2900 1003 2900 1516 
L 2900 3500 
L 3475 3500 
L 3475 0 
L 2900 0 
L 2900 538 
Q 2691 219 2414 64 
Q 2138 -91 1772 -91 
Q 1169 -91 856 284 
Q 544 659 544 1381 
z
M 1991 3584 
L 1991 3584 
z
" transform="scale(0.015625)"/>
       <path id="DejaVuSans-72" d="M 2631 2963 
Q 2534 3019 2420 3045 
Q 2306 3072 2169 3072 
Q 1681 3072 1420 2755 
Q 1159 2438 1159 1844 
L 1159 0 
L 581 0 
L 581 3500 
L 1159 3500 
L 1159 2956 
Q 1341 3275 1631 3429 
Q 1922 3584 2338 3584 
Q 2397 3584 2469 3576 
Q 2541 3569 2628 3553 
L 2631 2963 
z
" transform="scale(0.015625)"/>
       <path id="DejaVuSans-61" d="M 2194 1759 
Q 1497 1759 1228 1600 
Q 959 1441 959 1056 
Q 959 750 1161 570 
Q 1363 391 1709 391 
Q 2188 391 2477 730 
Q 2766 1069 2766 1631 
L 2766 1759 
L 2194 1759 
z
M 3341 1997 
L 3341 0 
L 2766 0 
L 2766 531 
Q 2569 213 2275 61 
Q 1981 -91 1556 -91 
Q 1019 -91 701 211 
Q 384 513 384 1019 
Q 384 1609 779 1909 
Q 1175 2209 1959 2209 
L 2766 2209 
L 2766 2266 
Q 2766 2663 2505 2880 
Q 2244 3097 1772 3097 
Q 1472 3097 1187 3025 
Q 903 2953 641 2809 
L 641 3341 
Q 956 3463 1253 3523 
Q 1550 3584 1831 3584 
Q 2591 3584 2966 3190 
Q 3341 2797 3341 1997 
z
" transform="scale(0.015625)"/>
       <path id="DejaVuSans-74" d="M 1172 4494 
L 1172 3500 
L 2356 3500 
L 2356 3053 
L 1172 3053 
L 1172 1153 
Q 1172 725 1289 603 
Q 1406 481 1766 481 
L 2356 481 
L 2356 0 
L 1766 0 
Q 1100 0 847 248 
Q 594 497 594 1153 
L 594 3053 
L 172 3053 
L 172 3500 
L 594 3500 
L 594 4494 
L 1172 4494 
z
" transform="scale(0.015625)"/>
       <path id="DejaVuSans-69" d="M 603 3500 
L 1178 3500 
L 1178 0 
L 603 0 
L 603 3500 
z
M 603 4863 
L 1178 4863 
L 1178 4134 
L 603 4134 
L 603 4863 
z
" transform="scale(0.015625)"/>
       <path id="DejaVuSans-6f" d="M 1959 3097 
Q 1497 3097 1228 2736 
Q 959 2375 959 1747 
Q 959 1119 1226 758 
Q 1494 397 1959 397 
Q 2419 397 2687 759 
Q 2956 1122 2956 1747 
Q 2956 2369 2687 2733 
Q 2419 3097 1959 3097 
z
M 1959 3584 
Q 2709 3584 3137 3096 
Q 3566 2609 3566 1747 
Q 3566 888 3137 398 
Q 2709 -91 1959 -91 
Q 1206 -91 779 398 
Q 353 888 353 1747 
Q 353 2609 779 3096 
Q 1206 3584 1959 3584 
z
" transform="scale(0.015625)"/>
       <path id="DejaVuSans-6e" d="M 3513 2113 
L 3513 0 
L 2938 0 
L 2938 2094 
Q 2938 2591 2744 2837 
Q 2550 3084 2163 3084 
Q 1697 3084 1428 2787 
Q 1159 2491 1159 1978 
L 1159 0 
L 581 0 
L 581 3500 
L 1159 3500 
L 1159 2956 
Q 1366 3272 1645 3428 
Q 1925 3584 2291 3584 
Q 2894 3584 3203 3211 
Q 3513 2838 3513 2113 
z
" transform="scale(0.015625)"/>
       <path id="DejaVuSans-20" transform="scale(0.015625)"/>
       <path id="DejaVuSans-28" d="M 1984 4856 
Q 1566 4138 1362 3434 
Q 1159 2731 1159 2009 
Q 1159 1288 1364 580 
Q 1569 -128 1984 -844 
L 1484 -844 
Q 1016 -109 783 600 
Q 550 1309 550 2009 
Q 550 2706 781 3412 
Q 1013 4119 1484 4856 
L 1984 4856 
z
" transform="scale(0.015625)"/>
       <path id="DejaVuSans-6d" d="M 3328 2828 
Q 3544 3216 3844 3400 
Q 4144 3584 4550 3584 
Q 5097 3584 5394 3201 
Q 5691 2819 5691 2113 
L 5691 0 
L 5113 0 
L 5113 2094 
Q 5113 2597 4934 2840 
Q 4756 3084 4391 3084 
Q 3944 3084 3684 2787 
Q 3425 2491 3425 1978 
L 3425 0 
L 2847 0 
L 2847 2094 
Q 2847 2600 2669 2842 
Q 2491 3084 2119 3084 
Q 1678 3084 1418 2786 
Q 1159 2488 1159 1978 
L 1159 0 
L 581 0 
L 581 3500 
L 1159 3500 
L 1159 2956 
Q 1356 3278 1631 3431 
Q 1906 3584 2284 3584 
Q 2666 3584 2933 3390 
Q 3200 3197 3328 2828 
z
" transform="scale(0.015625)"/>
       <path id="DejaVuSans-73" d="M 2834 3397 
L 2834 2853 
Q 2591 2978 2328 3040 
Q 2066 3103 1784 3103 
Q 1356 3103 1142 2972 
Q 928 2841 928 2578 
Q 928 2378 1081 2264 
Q 1234 2150 1697 2047 
L 1894 2003 
Q 2506 1872 2764 1633 
Q 3022 1394 3022 966 
Q 3022 478 2636 193 
Q 2250 -91 1575 -91 
Q 1294 -91 989 -36 
Q 684 19 347 128 
L 347 722 
Q 666 556 975 473 
Q 1284 391 1588 391 
Q 1994 391 2212 530 
Q 2431 669 2431 922 
Q 2431 1156 2273 1281 
Q 2116 1406 1581 1522 
L 1381 1569 
Q 847 1681 609 1914 
Q 372 2147 372 2553 
Q 372 3047 722 3315 
Q 1072 3584 1716 3584 
Q 2034 3584 2315 3537 
Q 2597 3491 2834 3397 
z
" transform="scale(0.015625)"/>
       <path id="DejaVuSans-29" d="M 513 4856 
L 1013 4856 
Q 1481 4119 1714 3412 
Q 1947 2706 1947 2009 
Q 1947 1309 1714 600 
Q 1481 -109 1013 -844 
L 513 -844 
Q 928 -128 1133 580 
Q 1338 1288 1338 2009 
Q 1338 2731 1133 3434 
Q 928 4138 513 4856 
z
" transform="scale(0.015625)"/>
      </defs>
      <use xlink:href="#DejaVuSans-44"/>
      <use xlink:href="#DejaVuSans-75" transform="translate(77.001953 0)"/>
      <use xlink:href="#DejaVuSans-72" transform="translate(140.380859 0)"/>
      <use xlink:href="#DejaVuSans-61" transform="translate(181.494141 0)"/>
      <use xlink:href="#DejaVuSans-74" transform="translate(242.773438 0)"/>
      <use xlink:href="#DejaVuSans-69" transform="translate(281.982422 0)"/>
      <use xlink:href="#DejaVuSans-6f" transform="translate(309.765625 0)"/>
      <use xlink:href="#DejaVuSans-6e" transform="translate(370.947266 0)"/>
      <use xlink:href="#DejaVuSans-20" transform="translate(434.326172 0)"/>
      <use xlink:href="#DejaVuSans-28" transform="translate(466.113281 0)"/>
      <use xlink:href="#DejaVuSans-6d" transform="translate(505.126953 0)"/>
      <use xlink:href="#DejaVuSans-73" transform="translate(602.539062 0)"/>
      <use xlink:href="#DejaVuSans-29" transform="translate(654.638672 0)"/>
     </g>
    </g>
   </g>
   <g id="matplotlib.axis_2">
    <g id="ytick_1">
     <g id="line2d_8">
      <defs>
       <path id="m3f35460980" d="M 0 0 
L -3.5 0 
" style="stroke: #000000; stroke-width: 0.8"/>
      </defs>
      <g>
       <use xlink:href="#m3f35460980" x="50.6" y="459.16" style="stroke: #000000; stroke-width: 0.8"/>
      </g>
     </g>
     <g id="text_9">
      <!-- 0.0 -->
      <g transform="translate(27.696875 462.959219) scale(0.1 -0.1)">
       <defs>
        <path id="DejaVuSans-2e" d="M 684 794 
L 1344 794 
L 1344 0 
L 684 0 
L 684 794 
z
" transform="scale(0.015625)"/>
       </defs>
       <use xlink:href="#DejaVuSans-30"/>
       <use xlink:href="#DejaVuSans-2e" transform="translate(63.623047 0)"/>
       <use xlink:href="#DejaVuSans-30" transform="translate(95.410156 0)"/>
      </g>
     </g>
    </g>
    <g id="ytick_2">
     <g id="line2d_9">
      <g>
       <use xlink:href="#m3f35460980" x="50.6" y="391.503946" style="stroke: #000000; stroke-width: 0.8"/>
      </g>
     </g>
     <g id="text_10">
      <!-- 0.1 -->
      <g transform="translate(27.696875 395.303164) scale(0.1 -0.1)">
       <use xlink:href="#DejaVuSans-30"/>
       <use xlink:href="#DejaVuSans-2e" transform="translate(63.623047 0)"/>
       <use xlink:href="#DejaVuSans-31" transform="translate(95.410156 0)"/>
      </g>
     </g>
    </g>
    <g id="ytick_3">
     <g id="line2d_10">
      <g>
       <use xlink:href="#m3f35460980" x="50.6" y="323.847891" style="stroke: #000000; stroke-width: 0.8"/>
      </g>
     </g>
     <g id="text_11">
      <!-- 0.2 -->
      <g transform="translate(27.696875 327.64711) scale(0.1 -0.1)">
       <use xlink:href="#DejaVuSans-30"/>
       <use xlink:href="#DejaVuSans-2e" transform="translate(63.623047 0)"/>
       <use xlink:href="#DejaVuSans-32" transform="translate(95.410156 0)"/>
      </g>
     </g>
    </g>
    <g id="ytick_4">
     <g id="line2d_11">
      <g>
       <use xlink:href="#m3f35460980" x="50.6" y="256.191837" style="stroke: #000000; stroke-width: 0.8"/>
      </g>
     </g>
     <g id="text_12">
      <!-- 0.3 -->
      <g transform="translate(27.696875 259.991055) scale(0.1 -0.1)">
       <use xlink:href="#DejaVuSans-30"/>
       <use xlink:href="#DejaVuSans-2e" transform="translate(63.623047 0)"/>
       <use xlink:href="#DejaVuSans-33" transform="translate(95.410156 0)"/>
      </g>
     </g>
    </g>
    <g id="ytick_5">
     <g id="line2d_12">
      <g>
       <use xlink:href="#m3f35460980" x="50.6" y="188.535782" style="stroke: #000000; stroke-width: 0.8"/>
      </g>
     </g>
     <g id="text_13">
      <!-- 0.4 -->
      <g transform="translate(27.696875 192.335001) scale(0.1 -0.1)">
       <use xlink:href="#DejaVuSans-30"/>
       <use xlink:href="#DejaVuSans-2e" transform="translate(63.623047 0)"/>
       <use xlink:href="#DejaVuSans-34" transform="translate(95.410156 0)"/>
      </g>
     </g>
    </g>
    <g id="ytick_6">
     <g id="line2d_13">
      <g>
       <use xlink:href="#m3f35460980" x="50.6" y="120.879728" style="stroke: #000000; stroke-width: 0.8"/>
      </g>
     </g>
     <g id="text_14">
      <!-- 0.5 -->
      <g transform="translate(27.696875 124.678947) scale(0.1 -0.1)">
       <use xlink:href="#DejaVuSans-30"/>
       <use xlink:href="#DejaVuSans-2e" transform="translate(63.623047 0)"/>
       <use xlink:href="#DejaVuSans-35" transform="translate(95.410156 0)"/>
      </g>
     </g>
    </g>
    <g id="ytick_7">
     <g id="line2d_14">
      <g>
       <use xlink:href="#m3f35460980" x="50.6" y="53.223673" style="stroke: #000000; stroke-width: 0.8"/>
      </g>
     </g>
     <g id="text_15">
      <!-- 0.6 -->
      <g transform="translate(27.696875 57.022892) scale(0.1 -0.1)">
       <use xlink:href="#DejaVuSans-30"/>
       <use xlink:href="#DejaVuSans-2e" transform="translate(63.623047 0)"/>
       <use xlink:href="#DejaVuSans-36" transform="translate(95.410156 0)"/>
      </g>
     </g>
    </g>
    <g id="text_16">
     <!-- Density -->
     <g transform="translate(21.20125 257.790313) rotate(-90) scale(0.12 -0.12)">
      <defs>
       <path id="DejaVuSans-65" d="M 3597 1894 
L 3597 1613 
L 953 1613 
Q 991 1019 1311 708 
Q 1631 397 2203 397 
Q 2534 397 2845 478 
Q 3156 559 3463 722 
L 3463 178 
Q 3153 47 2828 -22 
Q 2503 -91 2169 -91 
Q 1331 -91 842 396 
Q 353 884 353 1716 
Q 353 2575 817 3079 
Q 1281 3584 2069 3584 
Q 2775 3584 3186 3129 
Q 3597 2675 3597 1894 
z
M 3022 2063 
Q 3016 2534 2758 2815 
Q 2500 3097 2075 3097 
Q 1594 3097 1305 2825 
Q 1016 2553 972 2059 
L 3022 2063 
z
" transform="scale(0.015625)"/>
       <path id="DejaVuSans-79" d="M 2059 -325 
Q 1816 -950 1584 -1140 
Q 1353 -1331 966 -1331 
L 506 -1331 
L 506 -850 
L 844 -850 
Q 1081 -850 1212 -737 
Q 1344 -625 1503 -206 
L 1606 56 
L 191 3500 
L 800 3500 
L 1894 763 
L 2988 3500 
L 3597 3500 
L 2059 -325 
z
" transform="scale(0.015625)"/>
      </defs>
      <use xlink:href="#DejaVuSans-44"/>
      <use xlink:href="#DejaVuSans-65" transform="translate(77.001953 0)"/>
      <use xlink:href="#DejaVuSans-6e" transform="translate(138.525391 0)"/>
      <use xlink:href="#DejaVuSans-73" transform="translate(201.904297 0)"/>
      <use xlink:href="#DejaVuSans-69" transform="translate(254.003906 0)"/>
      <use xlink:href="#DejaVuSans-74" transform="translate(281.787109 0)"/>
      <use xlink:href="#DejaVuSans-79" transform="translate(320.996094 0)"/>
     </g>
    </g>
   </g>
   <g id="line2d_15">
    <path d="M 87.081818 234.229115 
L 90.748333 225.246981 
L 94.414847 239.870513 
L 98.081361 269.862333 
L 105.41439 341.525515 
L 109.080905 372.137782 
L 112.747419 395.846631 
L 116.413933 412.50362 
L 120.080448 423.224462 
L 123.746962 429.59043 
L 127.413476 433.119784 
L 131.079991 435.093197 
L 138.41302 437.933626 
L 142.079534 439.621478 
L 153.079077 445.210661 
L 156.745592 446.714588 
L 160.412106 447.862878 
L 164.07862 448.707681 
L 171.411649 450.142965 
L 186.077707 453.522181 
L 204.410279 456.586667 
L 208.076793 456.99269 
L 211.743307 457.203488 
L 219.076336 457.244595 
L 230.075879 457.283146 
L 252.074966 457.79166 
L 266.741023 457.968576 
L 285.073595 458.443872 
L 303.406167 458.666078 
L 321.738739 459.12606 
L 340.071311 459.144 
L 351.070854 458.994441 
L 362.070397 458.794826 
L 373.069941 458.988684 
L 384.069484 459.138037 
L 395.069027 459.07252 
L 409.735085 458.795003 
L 417.068113 458.893857 
L 428.067656 459.114394 
L 446.400228 459.159923 
L 596.727318 459.09802 
L 615.05989 458.801352 
L 644.392005 459.159225 
L 816.718182 459.16 
L 816.718182 459.16 
" clip-path="url(#pb2d22b8362)" style="fill: none; stroke: #2ca02c; stroke-width: 1.5; stroke-linecap: square"/>
   </g>
   <g id="line2d_16">
    <path d="M 87.081818 284.832364 
L 90.748333 280.251565 
L 94.414847 286.638867 
L 98.081361 301.966928 
L 101.747876 322.847532 
L 105.41439 345.621175 
L 109.080905 367.280289 
L 112.747419 385.951106 
L 116.413933 400.911562 
L 120.080448 412.300155 
L 123.746962 420.720537 
L 127.413476 426.900798 
L 131.079991 431.483837 
L 134.746505 434.950655 
L 138.41302 437.633122 
L 142.079534 439.760945 
L 145.746048 441.502142 
L 149.412563 442.982066 
L 153.079077 444.287056 
L 160.412106 446.536831 
L 167.745135 448.349825 
L 171.411649 449.082002 
L 178.744678 450.221508 
L 189.744221 451.612842 
L 193.410735 452.199677 
L 200.743764 453.704885 
L 208.076793 455.331512 
L 211.743307 455.998072 
L 215.409822 456.491531 
L 219.076336 456.801433 
L 226.409365 456.994601 
L 252.074966 456.953275 
L 259.407995 457.239666 
L 270.407538 458.024657 
L 277.740566 458.519373 
L 285.073595 458.806368 
L 296.073138 458.893876 
L 369.403426 458.93184 
L 395.069027 459.148065 
L 417.068113 459.054246 
L 435.400685 458.909395 
L 468.399315 459.007389 
L 483.065372 458.909219 
L 534.396574 459.077654 
L 556.39566 458.914193 
L 593.060804 459.08607 
L 618.726405 458.929163 
L 651.725034 459.148707 
L 670.057606 459.033985 
L 688.390178 458.916109 
L 736.054865 459.159905 
L 798.38561 459.069416 
L 816.718182 458.908165 
L 816.718182 458.908165 
" clip-path="url(#pb2d22b8362)" style="fill: none; stroke: #ff7f0e; stroke-width: 1.5; stroke-linecap: square"/>
   </g>
   <g id="line2d_17">
    <path d="M 87.081818 226.990049 
L 90.748333 221.456713 
L 94.414847 241.57946 
L 98.081361 275.265611 
L 101.747876 311.338478 
L 105.41439 343.587791 
L 109.080905 369.752495 
L 112.747419 389.695224 
L 116.413933 404.354182 
L 120.080448 415.045772 
L 123.746962 422.98359 
L 127.413476 429.032535 
L 131.079991 433.651635 
L 134.746505 437.047867 
L 138.41302 439.411351 
L 142.079534 441.030901 
L 153.079077 444.784125 
L 156.745592 446.384815 
L 160.412106 448.263148 
L 164.07862 450.278563 
L 167.745135 452.114392 
L 171.411649 453.444298 
L 175.078164 454.157165 
L 178.744678 454.416016 
L 186.077707 454.664253 
L 197.07725 455.363834 
L 204.410279 455.739475 
L 208.076793 456.113463 
L 219.076336 457.653541 
L 222.742851 457.895931 
L 230.075879 457.938273 
L 237.408908 457.935235 
L 244.741937 458.226417 
L 255.74148 458.915612 
L 263.074509 459.044439 
L 270.407538 458.868694 
L 288.74011 458.122412 
L 296.073138 458.214693 
L 318.072225 459.088974 
L 329.071768 459.141312 
L 340.071311 458.97492 
L 351.070854 458.777887 
L 362.070397 459.017583 
L 373.069941 459.150394 
L 395.069027 459.081274 
L 413.401599 458.805549 
L 431.734171 459.146269 
L 475.732344 459.16 
L 596.727318 459.105971 
L 615.05989 458.783587 
L 640.725491 459.158067 
L 816.718182 459.16 
L 816.718182 459.16 
" clip-path="url(#pb2d22b8362)" style="fill: none; stroke: #1f77b4; stroke-width: 1.5; stroke-linecap: square"/>
   </g>
   <g id="patch_3">
    <path d="M 50.6 459.16 
L 50.6 10.8 
" style="fill: none; stroke: #000000; stroke-width: 0.8; stroke-linejoin: miter; stroke-linecap: square"/>
   </g>
   <g id="patch_4">
    <path d="M 853.2 459.16 
L 853.2 10.8 
" style="fill: none; stroke: #000000; stroke-width: 0.8; stroke-linejoin: miter; stroke-linecap: square"/>
   </g>
   <g id="patch_5">
    <path d="M 50.6 459.16 
L 853.2 459.16 
" style="fill: none; stroke: #000000; stroke-width: 0.8; stroke-linejoin: miter; stroke-linecap: square"/>
   </g>
   <g id="patch_6">
    <path d="M 50.6 10.8 
L 853.2 10.8 
" style="fill: none; stroke: #000000; stroke-width: 0.8; stroke-linejoin: miter; stroke-linecap: square"/>
   </g>
   <g id="legend_1">
    <g id="patch_7">
     <path d="M 803.040625 38.478125 
L 846.2 38.478125 
Q 848.2 38.478125 848.2 36.478125 
L 848.2 17.8 
Q 848.2 15.8 846.2 15.8 
L 803.040625 15.8 
Q 801.040625 15.8 801.040625 17.8 
L 801.040625 36.478125 
Q 801.040625 38.478125 803.040625 38.478125 
z
" style="fill: #ffffff; opacity: 0.8; stroke: #cccccc; stroke-linejoin: miter"/>
    </g>
    <g id="text_17">
     <!-- Dataset -->
     <g transform="translate(805.040625 27.398438) scale(0.1 -0.1)">
      <use xlink:href="#DejaVuSans-44"/>
      <use xlink:href="#DejaVuSans-61" transform="translate(77.001953 0)"/>
      <use xlink:href="#DejaVuSans-74" transform="translate(138.28125 0)"/>
      <use xlink:href="#DejaVuSans-61" transform="translate(177.490234 0)"/>
      <use xlink:href="#DejaVuSans-73" transform="translate(238.769531 0)"/>
      <use xlink:href="#DejaVuSans-65" transform="translate(290.869141 0)"/>
      <use xlink:href="#DejaVuSans-74" transform="translate(352.392578 0)"/>
     </g>
    </g>
   </g>
  </g>
 </g>
 <defs>
  <clipPath id="pb2d22b8362">
   <rect x="50.6" y="10.8" width="802.6" height="448.36"/>
  </clipPath>
 </defs>
</svg>
