<?xml version="1.0" encoding="utf-8" standalone="no"?>
<!DOCTYPE svg PUBLIC "-//W3C//DTD SVG 1.1//EN"
  "http://www.w3.org/Graphics/SVG/1.1/DTD/svg11.dtd">
<svg xmlns:xlink="http://www.w3.org/1999/xlink" width="1296pt" height="504pt" viewBox="0 0 1296 504" xmlns="http://www.w3.org/2000/svg" version="1.1">
 <metadata>
  <rdf:RDF xmlns:dc="http://purl.org/dc/elements/1.1/" xmlns:cc="http://creativecommons.org/ns#" xmlns:rdf="http://www.w3.org/1999/02/22-rdf-syntax-ns#">
   <cc:Work>
    <dc:type rdf:resource="http://purl.org/dc/dcmitype/StillImage"/>
    <dc:date>2025-07-16T10:22:25.592851</dc:date>
    <dc:format>image/svg+xml</dc:format>
    <dc:creator>
     <cc:Agent>
      <dc:title>Matplotlib v3.10.3, https://matplotlib.org/</dc:title>
     </cc:Agent>
    </dc:creator>
   </cc:Work>
  </rdf:RDF>
 </metadata>
 <defs>
  <style type="text/css">*{stroke-linejoin: round; stroke-linecap: butt}</style>
 </defs>
 <g id="figure_1">
  <g id="patch_1">
   <path d="M 0 504 
L 1296 504 
L 1296 0 
L 0 0 
z
" style="fill: #ffffff"/>
  </g>
  <g id="axes_1">
   <g id="patch_2">
    <path d="M 61.74 456.66 
L 641.52 456.66 
L 641.52 27.65625 
L 61.74 27.65625 
z
" style="fill: #ffffff"/>
   </g>
   <g id="matplotlib.axis_1">
    <g id="xtick_1">
     <g id="text_1">
      <!-- 2 -->
      <g style="fill: #262626" transform="translate(69.8311 474.033594) scale(0.11 -0.11)">
       <defs>
        <path id="ArialMT-32" d="M 3222 541 
L 3222 0 
L 194 0 
Q 188 203 259 391 
Q 375 700 629 1000 
Q 884 1300 1366 1694 
Q 2113 2306 2375 2664 
Q 2638 3022 2638 3341 
Q 2638 3675 2398 3904 
Q 2159 4134 1775 4134 
Q 1369 4134 1125 3890 
Q 881 3647 878 3216 
L 300 3275 
Q 359 3922 746 4261 
Q 1134 4600 1788 4600 
Q 2447 4600 2831 4234 
Q 3216 3869 3216 3328 
Q 3216 3053 3103 2787 
Q 2991 2522 2730 2228 
Q 2469 1934 1863 1422 
Q 1356 997 1212 845 
Q 1069 694 975 541 
L 3222 541 
z
" transform="scale(0.015625)"/>
       </defs>
       <use xlink:href="#ArialMT-32"/>
      </g>
     </g>
    </g>
    <g id="xtick_2">
     <g id="text_2">
      <!-- 7 -->
      <g style="fill: #262626" transform="translate(181.327254 474.033594) scale(0.11 -0.11)">
       <defs>
        <path id="ArialMT-37" d="M 303 3981 
L 303 4522 
L 3269 4522 
L 3269 4084 
Q 2831 3619 2401 2847 
Q 1972 2075 1738 1259 
Q 1569 684 1522 0 
L 944 0 
Q 953 541 1156 1306 
Q 1359 2072 1739 2783 
Q 2119 3494 2547 3981 
L 303 3981 
z
" transform="scale(0.015625)"/>
       </defs>
       <use xlink:href="#ArialMT-37"/>
      </g>
     </g>
    </g>
    <g id="xtick_3">
     <g id="text_3">
      <!-- 12 -->
      <g style="fill: #262626" transform="translate(289.764892 474.033594) scale(0.11 -0.11)">
       <defs>
        <path id="ArialMT-31" d="M 2384 0 
L 1822 0 
L 1822 3584 
Q 1619 3391 1289 3197 
Q 959 3003 697 2906 
L 697 3450 
Q 1169 3672 1522 3987 
Q 1875 4303 2022 4600 
L 2384 4600 
L 2384 0 
z
" transform="scale(0.015625)"/>
       </defs>
       <use xlink:href="#ArialMT-31"/>
       <use xlink:href="#ArialMT-32" transform="translate(55.615234 0)"/>
      </g>
     </g>
    </g>
    <g id="xtick_4">
     <g id="text_4">
      <!-- 17 -->
      <g style="fill: #262626" transform="translate(401.261046 474.033594) scale(0.11 -0.11)">
       <use xlink:href="#ArialMT-31"/>
       <use xlink:href="#ArialMT-37" transform="translate(55.615234 0)"/>
      </g>
     </g>
    </g>
    <g id="xtick_5">
     <g id="text_5">
      <!-- 25 -->
      <g style="fill: #262626" transform="translate(512.7572 474.033594) scale(0.11 -0.11)">
       <defs>
        <path id="ArialMT-35" d="M 266 1200 
L 856 1250 
Q 922 819 1161 601 
Q 1400 384 1738 384 
Q 2144 384 2425 690 
Q 2706 997 2706 1503 
Q 2706 1984 2436 2262 
Q 2166 2541 1728 2541 
Q 1456 2541 1237 2417 
Q 1019 2294 894 2097 
L 366 2166 
L 809 4519 
L 3088 4519 
L 3088 3981 
L 1259 3981 
L 1013 2750 
Q 1425 3038 1878 3038 
Q 2478 3038 2890 2622 
Q 3303 2206 3303 1553 
Q 3303 931 2941 478 
Q 2500 -78 1738 -78 
Q 1113 -78 717 272 
Q 322 622 266 1200 
z
" transform="scale(0.015625)"/>
       </defs>
       <use xlink:href="#ArialMT-32"/>
       <use xlink:href="#ArialMT-35" transform="translate(55.615234 0)"/>
      </g>
     </g>
    </g>
    <g id="xtick_6">
     <g id="text_6">
      <!-- 66 -->
      <g style="fill: #262626" transform="translate(624.253353 474.033594) scale(0.11 -0.11)">
       <defs>
        <path id="ArialMT-36" d="M 3184 3459 
L 2625 3416 
Q 2550 3747 2413 3897 
Q 2184 4138 1850 4138 
Q 1581 4138 1378 3988 
Q 1113 3794 959 3422 
Q 806 3050 800 2363 
Q 1003 2672 1297 2822 
Q 1591 2972 1913 2972 
Q 2475 2972 2870 2558 
Q 3266 2144 3266 1488 
Q 3266 1056 3080 686 
Q 2894 316 2569 119 
Q 2244 -78 1831 -78 
Q 1128 -78 684 439 
Q 241 956 241 2144 
Q 241 3472 731 4075 
Q 1159 4600 1884 4600 
Q 2425 4600 2770 4297 
Q 3116 3994 3184 3459 
z
M 888 1484 
Q 888 1194 1011 928 
Q 1134 663 1356 523 
Q 1578 384 1822 384 
Q 2178 384 2434 671 
Q 2691 959 2691 1453 
Q 2691 1928 2437 2201 
Q 2184 2475 1800 2475 
Q 1419 2475 1153 2201 
Q 888 1928 888 1484 
z
" transform="scale(0.015625)"/>
       </defs>
       <use xlink:href="#ArialMT-36"/>
       <use xlink:href="#ArialMT-36" transform="translate(55.615234 0)"/>
      </g>
     </g>
    </g>
    <g id="text_7">
     <!-- Elapsed (ms) -->
     <g style="fill: #262626" transform="translate(316.288125 488.955469) scale(0.12 -0.12)">
      <defs>
       <path id="ArialMT-45" d="M 506 0 
L 506 4581 
L 3819 4581 
L 3819 4041 
L 1113 4041 
L 1113 2638 
L 3647 2638 
L 3647 2100 
L 1113 2100 
L 1113 541 
L 3925 541 
L 3925 0 
L 506 0 
z
" transform="scale(0.015625)"/>
       <path id="ArialMT-6c" d="M 409 0 
L 409 4581 
L 972 4581 
L 972 0 
L 409 0 
z
" transform="scale(0.015625)"/>
       <path id="ArialMT-61" d="M 2588 409 
Q 2275 144 1986 34 
Q 1697 -75 1366 -75 
Q 819 -75 525 192 
Q 231 459 231 875 
Q 231 1119 342 1320 
Q 453 1522 633 1644 
Q 813 1766 1038 1828 
Q 1203 1872 1538 1913 
Q 2219 1994 2541 2106 
Q 2544 2222 2544 2253 
Q 2544 2597 2384 2738 
Q 2169 2928 1744 2928 
Q 1347 2928 1158 2789 
Q 969 2650 878 2297 
L 328 2372 
Q 403 2725 575 2942 
Q 747 3159 1072 3276 
Q 1397 3394 1825 3394 
Q 2250 3394 2515 3294 
Q 2781 3194 2906 3042 
Q 3031 2891 3081 2659 
Q 3109 2516 3109 2141 
L 3109 1391 
Q 3109 606 3145 398 
Q 3181 191 3288 0 
L 2700 0 
Q 2613 175 2588 409 
z
M 2541 1666 
Q 2234 1541 1622 1453 
Q 1275 1403 1131 1340 
Q 988 1278 909 1158 
Q 831 1038 831 891 
Q 831 666 1001 516 
Q 1172 366 1500 366 
Q 1825 366 2078 508 
Q 2331 650 2450 897 
Q 2541 1088 2541 1459 
L 2541 1666 
z
" transform="scale(0.015625)"/>
       <path id="ArialMT-70" d="M 422 -1272 
L 422 3319 
L 934 3319 
L 934 2888 
Q 1116 3141 1344 3267 
Q 1572 3394 1897 3394 
Q 2322 3394 2647 3175 
Q 2972 2956 3137 2557 
Q 3303 2159 3303 1684 
Q 3303 1175 3120 767 
Q 2938 359 2589 142 
Q 2241 -75 1856 -75 
Q 1575 -75 1351 44 
Q 1128 163 984 344 
L 984 -1272 
L 422 -1272 
z
M 931 1641 
Q 931 1000 1190 694 
Q 1450 388 1819 388 
Q 2194 388 2461 705 
Q 2728 1022 2728 1688 
Q 2728 2322 2467 2637 
Q 2206 2953 1844 2953 
Q 1484 2953 1207 2617 
Q 931 2281 931 1641 
z
" transform="scale(0.015625)"/>
       <path id="ArialMT-73" d="M 197 991 
L 753 1078 
Q 800 744 1014 566 
Q 1228 388 1613 388 
Q 2000 388 2187 545 
Q 2375 703 2375 916 
Q 2375 1106 2209 1216 
Q 2094 1291 1634 1406 
Q 1016 1563 777 1677 
Q 538 1791 414 1992 
Q 291 2194 291 2438 
Q 291 2659 392 2848 
Q 494 3038 669 3163 
Q 800 3259 1026 3326 
Q 1253 3394 1513 3394 
Q 1903 3394 2198 3281 
Q 2494 3169 2634 2976 
Q 2775 2784 2828 2463 
L 2278 2388 
Q 2241 2644 2061 2787 
Q 1881 2931 1553 2931 
Q 1166 2931 1000 2803 
Q 834 2675 834 2503 
Q 834 2394 903 2306 
Q 972 2216 1119 2156 
Q 1203 2125 1616 2013 
Q 2213 1853 2448 1751 
Q 2684 1650 2818 1456 
Q 2953 1263 2953 975 
Q 2953 694 2789 445 
Q 2625 197 2315 61 
Q 2006 -75 1616 -75 
Q 969 -75 630 194 
Q 291 463 197 991 
z
" transform="scale(0.015625)"/>
       <path id="ArialMT-65" d="M 2694 1069 
L 3275 997 
Q 3138 488 2766 206 
Q 2394 -75 1816 -75 
Q 1088 -75 661 373 
Q 234 822 234 1631 
Q 234 2469 665 2931 
Q 1097 3394 1784 3394 
Q 2450 3394 2872 2941 
Q 3294 2488 3294 1666 
Q 3294 1616 3291 1516 
L 816 1516 
Q 847 969 1125 678 
Q 1403 388 1819 388 
Q 2128 388 2347 550 
Q 2566 713 2694 1069 
z
M 847 1978 
L 2700 1978 
Q 2663 2397 2488 2606 
Q 2219 2931 1791 2931 
Q 1403 2931 1139 2672 
Q 875 2413 847 1978 
z
" transform="scale(0.015625)"/>
       <path id="ArialMT-64" d="M 2575 0 
L 2575 419 
Q 2259 -75 1647 -75 
Q 1250 -75 917 144 
Q 584 363 401 755 
Q 219 1147 219 1656 
Q 219 2153 384 2558 
Q 550 2963 881 3178 
Q 1213 3394 1622 3394 
Q 1922 3394 2156 3267 
Q 2391 3141 2538 2938 
L 2538 4581 
L 3097 4581 
L 3097 0 
L 2575 0 
z
M 797 1656 
Q 797 1019 1065 703 
Q 1334 388 1700 388 
Q 2069 388 2326 689 
Q 2584 991 2584 1609 
Q 2584 2291 2321 2609 
Q 2059 2928 1675 2928 
Q 1300 2928 1048 2622 
Q 797 2316 797 1656 
z
" transform="scale(0.015625)"/>
       <path id="ArialMT-20" transform="scale(0.015625)"/>
       <path id="ArialMT-28" d="M 1497 -1347 
Q 1031 -759 709 28 
Q 388 816 388 1659 
Q 388 2403 628 3084 
Q 909 3875 1497 4659 
L 1900 4659 
Q 1522 4009 1400 3731 
Q 1209 3300 1100 2831 
Q 966 2247 966 1656 
Q 966 153 1900 -1347 
L 1497 -1347 
z
" transform="scale(0.015625)"/>
       <path id="ArialMT-6d" d="M 422 0 
L 422 3319 
L 925 3319 
L 925 2853 
Q 1081 3097 1340 3245 
Q 1600 3394 1931 3394 
Q 2300 3394 2536 3241 
Q 2772 3088 2869 2813 
Q 3263 3394 3894 3394 
Q 4388 3394 4653 3120 
Q 4919 2847 4919 2278 
L 4919 0 
L 4359 0 
L 4359 2091 
Q 4359 2428 4304 2576 
Q 4250 2725 4106 2815 
Q 3963 2906 3769 2906 
Q 3419 2906 3187 2673 
Q 2956 2441 2956 1928 
L 2956 0 
L 2394 0 
L 2394 2156 
Q 2394 2531 2256 2718 
Q 2119 2906 1806 2906 
Q 1569 2906 1367 2781 
Q 1166 2656 1075 2415 
Q 984 2175 984 1722 
L 984 0 
L 422 0 
z
" transform="scale(0.015625)"/>
       <path id="ArialMT-29" d="M 791 -1347 
L 388 -1347 
Q 1322 153 1322 1656 
Q 1322 2244 1188 2822 
Q 1081 3291 891 3722 
Q 769 4003 388 4659 
L 791 4659 
Q 1378 3875 1659 3084 
Q 1900 2403 1900 1659 
Q 1900 816 1576 28 
Q 1253 -759 791 -1347 
z
" transform="scale(0.015625)"/>
      </defs>
      <use xlink:href="#ArialMT-45"/>
      <use xlink:href="#ArialMT-6c" transform="translate(66.699219 0)"/>
      <use xlink:href="#ArialMT-61" transform="translate(88.916016 0)"/>
      <use xlink:href="#ArialMT-70" transform="translate(144.53125 0)"/>
      <use xlink:href="#ArialMT-73" transform="translate(200.146484 0)"/>
      <use xlink:href="#ArialMT-65" transform="translate(250.146484 0)"/>
      <use xlink:href="#ArialMT-64" transform="translate(305.761719 0)"/>
      <use xlink:href="#ArialMT-20" transform="translate(361.376953 0)"/>
      <use xlink:href="#ArialMT-28" transform="translate(389.160156 0)"/>
      <use xlink:href="#ArialMT-6d" transform="translate(422.460938 0)"/>
      <use xlink:href="#ArialMT-73" transform="translate(505.761719 0)"/>
      <use xlink:href="#ArialMT-29" transform="translate(555.761719 0)"/>
     </g>
    </g>
   </g>
   <g id="matplotlib.axis_2">
    <g id="ytick_1">
     <g id="line2d_1">
      <path d="M 61.74 456.66 
L 641.52 456.66 
" clip-path="url(#pb871a805a5)" style="fill: none; stroke: #cccccc; stroke-linecap: round"/>
     </g>
     <g id="text_8">
      <!-- 0 -->
      <g style="fill: #262626" transform="translate(46.122969 460.596797) scale(0.11 -0.11)">
       <defs>
        <path id="ArialMT-30" d="M 266 2259 
Q 266 3072 433 3567 
Q 600 4063 929 4331 
Q 1259 4600 1759 4600 
Q 2128 4600 2406 4451 
Q 2684 4303 2865 4023 
Q 3047 3744 3150 3342 
Q 3253 2941 3253 2259 
Q 3253 1453 3087 958 
Q 2922 463 2592 192 
Q 2263 -78 1759 -78 
Q 1097 -78 719 397 
Q 266 969 266 2259 
z
M 844 2259 
Q 844 1131 1108 757 
Q 1372 384 1759 384 
Q 2147 384 2411 759 
Q 2675 1134 2675 2259 
Q 2675 3391 2411 3762 
Q 2147 4134 1753 4134 
Q 1366 4134 1134 3806 
Q 844 3388 844 2259 
z
" transform="scale(0.015625)"/>
       </defs>
       <use xlink:href="#ArialMT-30"/>
      </g>
     </g>
    </g>
    <g id="ytick_2">
     <g id="line2d_2">
      <path d="M 61.74 290.741218 
L 641.52 290.741218 
" clip-path="url(#pb871a805a5)" style="fill: none; stroke: #cccccc; stroke-linecap: round"/>
     </g>
     <g id="text_9">
      <!-- 2000 -->
      <g style="fill: #262626" transform="translate(27.771875 294.678015) scale(0.11 -0.11)">
       <use xlink:href="#ArialMT-32"/>
       <use xlink:href="#ArialMT-30" transform="translate(55.615234 0)"/>
       <use xlink:href="#ArialMT-30" transform="translate(111.230469 0)"/>
       <use xlink:href="#ArialMT-30" transform="translate(166.845703 0)"/>
      </g>
     </g>
    </g>
    <g id="ytick_3">
     <g id="line2d_3">
      <path d="M 61.74 124.822437 
L 641.52 124.822437 
" clip-path="url(#pb871a805a5)" style="fill: none; stroke: #cccccc; stroke-linecap: round"/>
     </g>
     <g id="text_10">
      <!-- 4000 -->
      <g style="fill: #262626" transform="translate(27.771875 128.759233) scale(0.11 -0.11)">
       <defs>
        <path id="ArialMT-34" d="M 2069 0 
L 2069 1097 
L 81 1097 
L 81 1613 
L 2172 4581 
L 2631 4581 
L 2631 1613 
L 3250 1613 
L 3250 1097 
L 2631 1097 
L 2631 0 
L 2069 0 
z
M 2069 1613 
L 2069 3678 
L 634 1613 
L 2069 1613 
z
" transform="scale(0.015625)"/>
       </defs>
       <use xlink:href="#ArialMT-34"/>
       <use xlink:href="#ArialMT-30" transform="translate(55.615234 0)"/>
       <use xlink:href="#ArialMT-30" transform="translate(111.230469 0)"/>
       <use xlink:href="#ArialMT-30" transform="translate(166.845703 0)"/>
      </g>
     </g>
    </g>
    <g id="text_11">
     <!-- Count -->
     <g style="fill: #262626" transform="translate(21.386875 258.167812) rotate(-90) scale(0.12 -0.12)">
      <defs>
       <path id="ArialMT-43" d="M 3763 1606 
L 4369 1453 
Q 4178 706 3683 314 
Q 3188 -78 2472 -78 
Q 1731 -78 1267 223 
Q 803 525 561 1097 
Q 319 1669 319 2325 
Q 319 3041 592 3573 
Q 866 4106 1370 4382 
Q 1875 4659 2481 4659 
Q 3169 4659 3637 4309 
Q 4106 3959 4291 3325 
L 3694 3184 
Q 3534 3684 3231 3912 
Q 2928 4141 2469 4141 
Q 1941 4141 1586 3887 
Q 1231 3634 1087 3207 
Q 944 2781 944 2328 
Q 944 1744 1114 1308 
Q 1284 872 1643 656 
Q 2003 441 2422 441 
Q 2931 441 3284 734 
Q 3638 1028 3763 1606 
z
" transform="scale(0.015625)"/>
       <path id="ArialMT-6f" d="M 213 1659 
Q 213 2581 725 3025 
Q 1153 3394 1769 3394 
Q 2453 3394 2887 2945 
Q 3322 2497 3322 1706 
Q 3322 1066 3130 698 
Q 2938 331 2570 128 
Q 2203 -75 1769 -75 
Q 1072 -75 642 372 
Q 213 819 213 1659 
z
M 791 1659 
Q 791 1022 1069 705 
Q 1347 388 1769 388 
Q 2188 388 2466 706 
Q 2744 1025 2744 1678 
Q 2744 2294 2464 2611 
Q 2184 2928 1769 2928 
Q 1347 2928 1069 2612 
Q 791 2297 791 1659 
z
" transform="scale(0.015625)"/>
       <path id="ArialMT-75" d="M 2597 0 
L 2597 488 
Q 2209 -75 1544 -75 
Q 1250 -75 995 37 
Q 741 150 617 320 
Q 494 491 444 738 
Q 409 903 409 1263 
L 409 3319 
L 972 3319 
L 972 1478 
Q 972 1038 1006 884 
Q 1059 663 1231 536 
Q 1403 409 1656 409 
Q 1909 409 2131 539 
Q 2353 669 2445 892 
Q 2538 1116 2538 1541 
L 2538 3319 
L 3100 3319 
L 3100 0 
L 2597 0 
z
" transform="scale(0.015625)"/>
       <path id="ArialMT-6e" d="M 422 0 
L 422 3319 
L 928 3319 
L 928 2847 
Q 1294 3394 1984 3394 
Q 2284 3394 2536 3286 
Q 2788 3178 2913 3003 
Q 3038 2828 3088 2588 
Q 3119 2431 3119 2041 
L 3119 0 
L 2556 0 
L 2556 2019 
Q 2556 2363 2490 2533 
Q 2425 2703 2258 2804 
Q 2091 2906 1866 2906 
Q 1506 2906 1245 2678 
Q 984 2450 984 1813 
L 984 0 
L 422 0 
z
" transform="scale(0.015625)"/>
       <path id="ArialMT-74" d="M 1650 503 
L 1731 6 
Q 1494 -44 1306 -44 
Q 1000 -44 831 53 
Q 663 150 594 308 
Q 525 466 525 972 
L 525 2881 
L 113 2881 
L 113 3319 
L 525 3319 
L 525 4141 
L 1084 4478 
L 1084 3319 
L 1650 3319 
L 1650 2881 
L 1084 2881 
L 1084 941 
Q 1084 700 1114 631 
Q 1144 563 1211 522 
Q 1278 481 1403 481 
Q 1497 481 1650 503 
z
" transform="scale(0.015625)"/>
      </defs>
      <use xlink:href="#ArialMT-43"/>
      <use xlink:href="#ArialMT-6f" transform="translate(72.216797 0)"/>
      <use xlink:href="#ArialMT-75" transform="translate(127.832031 0)"/>
      <use xlink:href="#ArialMT-6e" transform="translate(183.447266 0)"/>
      <use xlink:href="#ArialMT-74" transform="translate(239.0625 0)"/>
     </g>
    </g>
   </g>
   <g id="patch_3">
    <path d="M 63.969923 456.66 
L 81.809308 456.66 
L 81.809308 137.764102 
L 63.969923 137.764102 
z
" clip-path="url(#pb871a805a5)" style="fill: #597dbf; stroke: #ffffff; stroke-linejoin: miter"/>
   </g>
   <g id="patch_4">
    <path d="M 86.269154 456.66 
L 104.108538 456.66 
L 104.108538 48.085 
L 86.269154 48.085 
z
" clip-path="url(#pb871a805a5)" style="fill: #597dbf; stroke: #ffffff; stroke-linejoin: miter"/>
   </g>
   <g id="patch_5">
    <path d="M 108.568385 456.66 
L 126.407769 456.66 
L 126.407769 412.857442 
L 108.568385 412.857442 
z
" clip-path="url(#pb871a805a5)" style="fill: #597dbf; stroke: #ffffff; stroke-linejoin: miter"/>
   </g>
   <g id="patch_6">
    <path d="M 130.867615 456.66 
L 148.707 456.66 
L 148.707 431.274426 
L 130.867615 431.274426 
z
" clip-path="url(#pb871a805a5)" style="fill: #597dbf; stroke: #ffffff; stroke-linejoin: miter"/>
   </g>
   <g id="patch_7">
    <path d="M 153.166846 456.66 
L 171.006231 456.66 
L 171.006231 442.971701 
L 153.166846 442.971701 
z
" clip-path="url(#pb871a805a5)" style="fill: #597dbf; stroke: #ffffff; stroke-linejoin: miter"/>
   </g>
   <g id="patch_8">
    <path d="M 175.466077 456.66 
L 193.305462 456.66 
L 193.305462 448.861817 
L 175.466077 448.861817 
z
" clip-path="url(#pb871a805a5)" style="fill: #597dbf; stroke: #ffffff; stroke-linejoin: miter"/>
   </g>
   <g id="patch_9">
    <path d="M 197.765308 456.66 
L 215.604692 456.66 
L 215.604692 453.756421 
L 197.765308 453.756421 
z
" clip-path="url(#pb871a805a5)" style="fill: #597dbf; stroke: #ffffff; stroke-linejoin: miter"/>
   </g>
   <g id="patch_10">
    <path d="M 220.064538 456.66 
L 237.903923 456.66 
L 237.903923 453.673462 
L 220.064538 453.673462 
z
" clip-path="url(#pb871a805a5)" style="fill: #597dbf; stroke: #ffffff; stroke-linejoin: miter"/>
   </g>
   <g id="patch_11">
    <path d="M 242.363769 456.66 
L 260.203154 456.66 
L 260.203154 455.166731 
L 242.363769 455.166731 
z
" clip-path="url(#pb871a805a5)" style="fill: #597dbf; stroke: #ffffff; stroke-linejoin: miter"/>
   </g>
   <g id="patch_12">
    <path d="M 264.663 456.66 
L 282.502385 456.66 
L 282.502385 455.581528 
L 264.663 455.581528 
z
" clip-path="url(#pb871a805a5)" style="fill: #597dbf; stroke: #ffffff; stroke-linejoin: miter"/>
   </g>
   <g id="patch_13">
    <path d="M 286.962231 456.66 
L 304.801615 456.66 
L 304.801615 456.079284 
L 286.962231 456.079284 
z
" clip-path="url(#pb871a805a5)" style="fill: #597dbf; stroke: #ffffff; stroke-linejoin: miter"/>
   </g>
   <g id="patch_14">
    <path d="M 309.261462 456.66 
L 327.100846 456.66 
L 327.100846 456.162244 
L 309.261462 456.162244 
z
" clip-path="url(#pb871a805a5)" style="fill: #597dbf; stroke: #ffffff; stroke-linejoin: miter"/>
   </g>
   <g id="patch_15">
    <path d="M 331.560692 456.66 
L 349.400077 456.66 
L 349.400077 456.162244 
L 331.560692 456.162244 
z
" clip-path="url(#pb871a805a5)" style="fill: #597dbf; stroke: #ffffff; stroke-linejoin: miter"/>
   </g>
   <g id="patch_16">
    <path d="M 353.859923 456.66 
L 371.699308 456.66 
L 371.699308 456.577041 
L 353.859923 456.577041 
z
" clip-path="url(#pb871a805a5)" style="fill: #597dbf; stroke: #ffffff; stroke-linejoin: miter"/>
   </g>
   <g id="patch_17">
    <path d="M 376.159154 456.66 
L 393.998538 456.66 
L 393.998538 456.494081 
L 376.159154 456.494081 
z
" clip-path="url(#pb871a805a5)" style="fill: #597dbf; stroke: #ffffff; stroke-linejoin: miter"/>
   </g>
   <g id="patch_18">
    <path d="M 398.458385 456.66 
L 416.297769 456.66 
L 416.297769 456.577041 
L 398.458385 456.577041 
z
" clip-path="url(#pb871a805a5)" style="fill: #597dbf; stroke: #ffffff; stroke-linejoin: miter"/>
   </g>
   <g id="patch_19">
    <path d="M 420.757615 456.66 
L 438.597 456.66 
L 438.597 456.577041 
L 420.757615 456.577041 
z
" clip-path="url(#pb871a805a5)" style="fill: #597dbf; stroke: #ffffff; stroke-linejoin: miter"/>
   </g>
   <g id="patch_20">
    <path d="M 443.056846 456.66 
L 460.896231 456.66 
L 460.896231 456.577041 
L 443.056846 456.577041 
z
" clip-path="url(#pb871a805a5)" style="fill: #597dbf; stroke: #ffffff; stroke-linejoin: miter"/>
   </g>
   <g id="patch_21">
    <path d="M 465.356077 456.66 
L 483.195462 456.66 
L 483.195462 456.577041 
L 465.356077 456.577041 
z
" clip-path="url(#pb871a805a5)" style="fill: #597dbf; stroke: #ffffff; stroke-linejoin: miter"/>
   </g>
   <g id="patch_22">
    <path d="M 487.655308 456.66 
L 505.494692 456.66 
L 505.494692 456.577041 
L 487.655308 456.577041 
z
" clip-path="url(#pb871a805a5)" style="fill: #597dbf; stroke: #ffffff; stroke-linejoin: miter"/>
   </g>
   <g id="patch_23">
    <path d="M 509.954538 456.66 
L 527.793923 456.66 
L 527.793923 456.411122 
L 509.954538 456.411122 
z
" clip-path="url(#pb871a805a5)" style="fill: #597dbf; stroke: #ffffff; stroke-linejoin: miter"/>
   </g>
   <g id="patch_24">
    <path d="M 532.253769 456.66 
L 550.093154 456.66 
L 550.093154 456.577041 
L 532.253769 456.577041 
z
" clip-path="url(#pb871a805a5)" style="fill: #597dbf; stroke: #ffffff; stroke-linejoin: miter"/>
   </g>
   <g id="patch_25">
    <path d="M 554.553 456.66 
L 572.392385 456.66 
L 572.392385 456.494081 
L 554.553 456.494081 
z
" clip-path="url(#pb871a805a5)" style="fill: #597dbf; stroke: #ffffff; stroke-linejoin: miter"/>
   </g>
   <g id="patch_26">
    <path d="M 576.852231 456.66 
L 594.691615 456.66 
L 594.691615 456.577041 
L 576.852231 456.577041 
z
" clip-path="url(#pb871a805a5)" style="fill: #597dbf; stroke: #ffffff; stroke-linejoin: miter"/>
   </g>
   <g id="patch_27">
    <path d="M 599.151462 456.66 
L 616.990846 456.66 
L 616.990846 456.577041 
L 599.151462 456.577041 
z
" clip-path="url(#pb871a805a5)" style="fill: #597dbf; stroke: #ffffff; stroke-linejoin: miter"/>
   </g>
   <g id="patch_28">
    <path d="M 621.450692 456.66 
L 639.290077 456.66 
L 639.290077 456.577041 
L 621.450692 456.577041 
z
" clip-path="url(#pb871a805a5)" style="fill: #597dbf; stroke: #ffffff; stroke-linejoin: miter"/>
   </g>
   <g id="line2d_4">
    <path clip-path="url(#pb871a805a5)" style="fill: none; stroke: #424242; stroke-width: 2.25; stroke-linecap: round"/>
   </g>
   <g id="line2d_5">
    <path clip-path="url(#pb871a805a5)" style="fill: none; stroke: #424242; stroke-width: 2.25; stroke-linecap: round"/>
   </g>
   <g id="line2d_6">
    <path clip-path="url(#pb871a805a5)" style="fill: none; stroke: #424242; stroke-width: 2.25; stroke-linecap: round"/>
   </g>
   <g id="line2d_7">
    <path clip-path="url(#pb871a805a5)" style="fill: none; stroke: #424242; stroke-width: 2.25; stroke-linecap: round"/>
   </g>
   <g id="line2d_8">
    <path clip-path="url(#pb871a805a5)" style="fill: none; stroke: #424242; stroke-width: 2.25; stroke-linecap: round"/>
   </g>
   <g id="line2d_9">
    <path clip-path="url(#pb871a805a5)" style="fill: none; stroke: #424242; stroke-width: 2.25; stroke-linecap: round"/>
   </g>
   <g id="line2d_10">
    <path clip-path="url(#pb871a805a5)" style="fill: none; stroke: #424242; stroke-width: 2.25; stroke-linecap: round"/>
   </g>
   <g id="line2d_11">
    <path clip-path="url(#pb871a805a5)" style="fill: none; stroke: #424242; stroke-width: 2.25; stroke-linecap: round"/>
   </g>
   <g id="line2d_12">
    <path clip-path="url(#pb871a805a5)" style="fill: none; stroke: #424242; stroke-width: 2.25; stroke-linecap: round"/>
   </g>
   <g id="line2d_13">
    <path clip-path="url(#pb871a805a5)" style="fill: none; stroke: #424242; stroke-width: 2.25; stroke-linecap: round"/>
   </g>
   <g id="line2d_14">
    <path clip-path="url(#pb871a805a5)" style="fill: none; stroke: #424242; stroke-width: 2.25; stroke-linecap: round"/>
   </g>
   <g id="line2d_15">
    <path clip-path="url(#pb871a805a5)" style="fill: none; stroke: #424242; stroke-width: 2.25; stroke-linecap: round"/>
   </g>
   <g id="line2d_16">
    <path clip-path="url(#pb871a805a5)" style="fill: none; stroke: #424242; stroke-width: 2.25; stroke-linecap: round"/>
   </g>
   <g id="line2d_17">
    <path clip-path="url(#pb871a805a5)" style="fill: none; stroke: #424242; stroke-width: 2.25; stroke-linecap: round"/>
   </g>
   <g id="line2d_18">
    <path clip-path="url(#pb871a805a5)" style="fill: none; stroke: #424242; stroke-width: 2.25; stroke-linecap: round"/>
   </g>
   <g id="line2d_19">
    <path clip-path="url(#pb871a805a5)" style="fill: none; stroke: #424242; stroke-width: 2.25; stroke-linecap: round"/>
   </g>
   <g id="line2d_20">
    <path clip-path="url(#pb871a805a5)" style="fill: none; stroke: #424242; stroke-width: 2.25; stroke-linecap: round"/>
   </g>
   <g id="line2d_21">
    <path clip-path="url(#pb871a805a5)" style="fill: none; stroke: #424242; stroke-width: 2.25; stroke-linecap: round"/>
   </g>
   <g id="line2d_22">
    <path clip-path="url(#pb871a805a5)" style="fill: none; stroke: #424242; stroke-width: 2.25; stroke-linecap: round"/>
   </g>
   <g id="line2d_23">
    <path clip-path="url(#pb871a805a5)" style="fill: none; stroke: #424242; stroke-width: 2.25; stroke-linecap: round"/>
   </g>
   <g id="line2d_24">
    <path clip-path="url(#pb871a805a5)" style="fill: none; stroke: #424242; stroke-width: 2.25; stroke-linecap: round"/>
   </g>
   <g id="line2d_25">
    <path clip-path="url(#pb871a805a5)" style="fill: none; stroke: #424242; stroke-width: 2.25; stroke-linecap: round"/>
   </g>
   <g id="line2d_26">
    <path clip-path="url(#pb871a805a5)" style="fill: none; stroke: #424242; stroke-width: 2.25; stroke-linecap: round"/>
   </g>
   <g id="line2d_27">
    <path clip-path="url(#pb871a805a5)" style="fill: none; stroke: #424242; stroke-width: 2.25; stroke-linecap: round"/>
   </g>
   <g id="line2d_28">
    <path clip-path="url(#pb871a805a5)" style="fill: none; stroke: #424242; stroke-width: 2.25; stroke-linecap: round"/>
   </g>
   <g id="line2d_29">
    <path clip-path="url(#pb871a805a5)" style="fill: none; stroke: #424242; stroke-width: 2.25; stroke-linecap: round"/>
   </g>
   <g id="patch_29">
    <path d="M 61.74 456.66 
L 61.74 27.65625 
" style="fill: none; stroke: #cccccc; stroke-width: 1.25; stroke-linejoin: miter; stroke-linecap: square"/>
   </g>
   <g id="patch_30">
    <path d="M 641.52 456.66 
L 641.52 27.65625 
" style="fill: none; stroke: #cccccc; stroke-width: 1.25; stroke-linejoin: miter; stroke-linecap: square"/>
   </g>
   <g id="patch_31">
    <path d="M 61.74 456.66 
L 641.52 456.66 
" style="fill: none; stroke: #cccccc; stroke-width: 1.25; stroke-linejoin: miter; stroke-linecap: square"/>
   </g>
   <g id="patch_32">
    <path d="M 61.74 27.65625 
L 641.52 27.65625 
" style="fill: none; stroke: #cccccc; stroke-width: 1.25; stroke-linejoin: miter; stroke-linecap: square"/>
   </g>
   <g id="text_12">
    <!-- poll_ws_multithread Time Consumption (10000 pieces of data) -->
    <g style="fill: #262626" transform="translate(185.550938 21.65625) scale(0.12 -0.12)">
     <defs>
      <path id="ArialMT-5f" d="M -97 -1272 
L -97 -866 
L 3631 -866 
L 3631 -1272 
L -97 -1272 
z
" transform="scale(0.015625)"/>
      <path id="ArialMT-77" d="M 1034 0 
L 19 3319 
L 600 3319 
L 1128 1403 
L 1325 691 
Q 1338 744 1497 1375 
L 2025 3319 
L 2603 3319 
L 3100 1394 
L 3266 759 
L 3456 1400 
L 4025 3319 
L 4572 3319 
L 3534 0 
L 2950 0 
L 2422 1988 
L 2294 2553 
L 1622 0 
L 1034 0 
z
" transform="scale(0.015625)"/>
      <path id="ArialMT-69" d="M 425 3934 
L 425 4581 
L 988 4581 
L 988 3934 
L 425 3934 
z
M 425 0 
L 425 3319 
L 988 3319 
L 988 0 
L 425 0 
z
" transform="scale(0.015625)"/>
      <path id="ArialMT-68" d="M 422 0 
L 422 4581 
L 984 4581 
L 984 2938 
Q 1378 3394 1978 3394 
Q 2347 3394 2619 3248 
Q 2891 3103 3008 2847 
Q 3125 2591 3125 2103 
L 3125 0 
L 2563 0 
L 2563 2103 
Q 2563 2525 2380 2717 
Q 2197 2909 1863 2909 
Q 1613 2909 1392 2779 
Q 1172 2650 1078 2428 
Q 984 2206 984 1816 
L 984 0 
L 422 0 
z
" transform="scale(0.015625)"/>
      <path id="ArialMT-72" d="M 416 0 
L 416 3319 
L 922 3319 
L 922 2816 
Q 1116 3169 1280 3281 
Q 1444 3394 1641 3394 
Q 1925 3394 2219 3213 
L 2025 2691 
Q 1819 2813 1613 2813 
Q 1428 2813 1281 2702 
Q 1134 2591 1072 2394 
Q 978 2094 978 1738 
L 978 0 
L 416 0 
z
" transform="scale(0.015625)"/>
      <path id="ArialMT-54" d="M 1659 0 
L 1659 4041 
L 150 4041 
L 150 4581 
L 3781 4581 
L 3781 4041 
L 2266 4041 
L 2266 0 
L 1659 0 
z
" transform="scale(0.015625)"/>
      <path id="ArialMT-63" d="M 2588 1216 
L 3141 1144 
Q 3050 572 2676 248 
Q 2303 -75 1759 -75 
Q 1078 -75 664 370 
Q 250 816 250 1647 
Q 250 2184 428 2587 
Q 606 2991 970 3192 
Q 1334 3394 1763 3394 
Q 2303 3394 2647 3120 
Q 2991 2847 3088 2344 
L 2541 2259 
Q 2463 2594 2264 2762 
Q 2066 2931 1784 2931 
Q 1359 2931 1093 2626 
Q 828 2322 828 1663 
Q 828 994 1084 691 
Q 1341 388 1753 388 
Q 2084 388 2306 591 
Q 2528 794 2588 1216 
z
" transform="scale(0.015625)"/>
      <path id="ArialMT-66" d="M 556 0 
L 556 2881 
L 59 2881 
L 59 3319 
L 556 3319 
L 556 3672 
Q 556 4006 616 4169 
Q 697 4388 901 4523 
Q 1106 4659 1475 4659 
Q 1713 4659 2000 4603 
L 1916 4113 
Q 1741 4144 1584 4144 
Q 1328 4144 1222 4034 
Q 1116 3925 1116 3625 
L 1116 3319 
L 1763 3319 
L 1763 2881 
L 1116 2881 
L 1116 0 
L 556 0 
z
" transform="scale(0.015625)"/>
     </defs>
     <use xlink:href="#ArialMT-70"/>
     <use xlink:href="#ArialMT-6f" transform="translate(55.615234 0)"/>
     <use xlink:href="#ArialMT-6c" transform="translate(111.230469 0)"/>
     <use xlink:href="#ArialMT-6c" transform="translate(133.447266 0)"/>
     <use xlink:href="#ArialMT-5f" transform="translate(155.664062 0)"/>
     <use xlink:href="#ArialMT-77" transform="translate(211.279297 0)"/>
     <use xlink:href="#ArialMT-73" transform="translate(283.496094 0)"/>
     <use xlink:href="#ArialMT-5f" transform="translate(333.496094 0)"/>
     <use xlink:href="#ArialMT-6d" transform="translate(389.111328 0)"/>
     <use xlink:href="#ArialMT-75" transform="translate(472.412109 0)"/>
     <use xlink:href="#ArialMT-6c" transform="translate(528.027344 0)"/>
     <use xlink:href="#ArialMT-74" transform="translate(550.244141 0)"/>
     <use xlink:href="#ArialMT-69" transform="translate(578.027344 0)"/>
     <use xlink:href="#ArialMT-74" transform="translate(600.244141 0)"/>
     <use xlink:href="#ArialMT-68" transform="translate(628.027344 0)"/>
     <use xlink:href="#ArialMT-72" transform="translate(683.642578 0)"/>
     <use xlink:href="#ArialMT-65" transform="translate(716.943359 0)"/>
     <use xlink:href="#ArialMT-61" transform="translate(772.558594 0)"/>
     <use xlink:href="#ArialMT-64" transform="translate(828.173828 0)"/>
     <use xlink:href="#ArialMT-20" transform="translate(883.789062 0)"/>
     <use xlink:href="#ArialMT-54" transform="translate(909.822266 0)"/>
     <use xlink:href="#ArialMT-69" transform="translate(967.15625 0)"/>
     <use xlink:href="#ArialMT-6d" transform="translate(989.373047 0)"/>
     <use xlink:href="#ArialMT-65" transform="translate(1072.673828 0)"/>
     <use xlink:href="#ArialMT-20" transform="translate(1128.289062 0)"/>
     <use xlink:href="#ArialMT-43" transform="translate(1156.072266 0)"/>
     <use xlink:href="#ArialMT-6f" transform="translate(1228.289062 0)"/>
     <use xlink:href="#ArialMT-6e" transform="translate(1283.904297 0)"/>
     <use xlink:href="#ArialMT-73" transform="translate(1339.519531 0)"/>
     <use xlink:href="#ArialMT-75" transform="translate(1389.519531 0)"/>
     <use xlink:href="#ArialMT-6d" transform="translate(1445.134766 0)"/>
     <use xlink:href="#ArialMT-70" transform="translate(1528.435547 0)"/>
     <use xlink:href="#ArialMT-74" transform="translate(1584.050781 0)"/>
     <use xlink:href="#ArialMT-69" transform="translate(1611.833984 0)"/>
     <use xlink:href="#ArialMT-6f" transform="translate(1634.050781 0)"/>
     <use xlink:href="#ArialMT-6e" transform="translate(1689.666016 0)"/>
     <use xlink:href="#ArialMT-20" transform="translate(1745.28125 0)"/>
     <use xlink:href="#ArialMT-28" transform="translate(1773.064453 0)"/>
     <use xlink:href="#ArialMT-31" transform="translate(1806.365234 0)"/>
     <use xlink:href="#ArialMT-30" transform="translate(1861.980469 0)"/>
     <use xlink:href="#ArialMT-30" transform="translate(1917.595703 0)"/>
     <use xlink:href="#ArialMT-30" transform="translate(1973.210938 0)"/>
     <use xlink:href="#ArialMT-30" transform="translate(2028.826172 0)"/>
     <use xlink:href="#ArialMT-20" transform="translate(2084.441406 0)"/>
     <use xlink:href="#ArialMT-70" transform="translate(2112.224609 0)"/>
     <use xlink:href="#ArialMT-69" transform="translate(2167.839844 0)"/>
     <use xlink:href="#ArialMT-65" transform="translate(2190.056641 0)"/>
     <use xlink:href="#ArialMT-63" transform="translate(2245.671875 0)"/>
     <use xlink:href="#ArialMT-65" transform="translate(2295.671875 0)"/>
     <use xlink:href="#ArialMT-73" transform="translate(2351.287109 0)"/>
     <use xlink:href="#ArialMT-20" transform="translate(2401.287109 0)"/>
     <use xlink:href="#ArialMT-6f" transform="translate(2429.070312 0)"/>
     <use xlink:href="#ArialMT-66" transform="translate(2484.685547 0)"/>
     <use xlink:href="#ArialMT-20" transform="translate(2512.46875 0)"/>
     <use xlink:href="#ArialMT-64" transform="translate(2540.251953 0)"/>
     <use xlink:href="#ArialMT-61" transform="translate(2595.867188 0)"/>
     <use xlink:href="#ArialMT-74" transform="translate(2651.482422 0)"/>
     <use xlink:href="#ArialMT-61" transform="translate(2679.265625 0)"/>
     <use xlink:href="#ArialMT-29" transform="translate(2734.880859 0)"/>
    </g>
   </g>
  </g>
  <g id="axes_2">
   <g id="patch_33">
    <path d="M 703.26 456.66 
L 1283.04 456.66 
L 1283.04 27.65625 
L 703.26 27.65625 
z
" style="fill: #ffffff"/>
   </g>
   <g id="matplotlib.axis_3">
    <g id="xtick_7">
     <g id="line2d_30">
      <path d="M 713.142614 456.66 
L 713.142614 27.65625 
" clip-path="url(#p571de68917)" style="fill: none; stroke: #cccccc; stroke-linecap: round"/>
     </g>
     <g id="text_13">
      <!-- 0 -->
      <g style="fill: #262626" transform="translate(710.084098 474.033594) scale(0.11 -0.11)">
       <use xlink:href="#ArialMT-30"/>
      </g>
     </g>
    </g>
    <g id="xtick_8">
     <g id="line2d_31">
      <path d="M 754.32017 456.66 
L 754.32017 27.65625 
" clip-path="url(#p571de68917)" style="fill: none; stroke: #cccccc; stroke-linecap: round"/>
     </g>
     <g id="text_14">
      <!-- 5 -->
      <g style="fill: #262626" transform="translate(751.261655 474.033594) scale(0.11 -0.11)">
       <use xlink:href="#ArialMT-35"/>
      </g>
     </g>
    </g>
    <g id="xtick_9">
     <g id="line2d_32">
      <path d="M 795.497727 456.66 
L 795.497727 27.65625 
" clip-path="url(#p571de68917)" style="fill: none; stroke: #cccccc; stroke-linecap: round"/>
     </g>
     <g id="text_15">
      <!-- 10 -->
      <g style="fill: #262626" transform="translate(789.380696 474.033594) scale(0.11 -0.11)">
       <use xlink:href="#ArialMT-31"/>
       <use xlink:href="#ArialMT-30" transform="translate(55.615234 0)"/>
      </g>
     </g>
    </g>
    <g id="xtick_10">
     <g id="line2d_33">
      <path d="M 836.675284 456.66 
L 836.675284 27.65625 
" clip-path="url(#p571de68917)" style="fill: none; stroke: #cccccc; stroke-linecap: round"/>
     </g>
     <g id="text_16">
      <!-- 15 -->
      <g style="fill: #262626" transform="translate(830.558253 474.033594) scale(0.11 -0.11)">
       <use xlink:href="#ArialMT-31"/>
       <use xlink:href="#ArialMT-35" transform="translate(55.615234 0)"/>
      </g>
     </g>
    </g>
    <g id="xtick_11">
     <g id="line2d_34">
      <path d="M 877.852841 456.66 
L 877.852841 27.65625 
" clip-path="url(#p571de68917)" style="fill: none; stroke: #cccccc; stroke-linecap: round"/>
     </g>
     <g id="text_17">
      <!-- 20 -->
      <g style="fill: #262626" transform="translate(871.73581 474.033594) scale(0.11 -0.11)">
       <use xlink:href="#ArialMT-32"/>
       <use xlink:href="#ArialMT-30" transform="translate(55.615234 0)"/>
      </g>
     </g>
    </g>
    <g id="xtick_12">
     <g id="line2d_35">
      <path d="M 919.030398 456.66 
L 919.030398 27.65625 
" clip-path="url(#p571de68917)" style="fill: none; stroke: #cccccc; stroke-linecap: round"/>
     </g>
     <g id="text_18">
      <!-- 25 -->
      <g style="fill: #262626" transform="translate(912.913366 474.033594) scale(0.11 -0.11)">
       <use xlink:href="#ArialMT-32"/>
       <use xlink:href="#ArialMT-35" transform="translate(55.615234 0)"/>
      </g>
     </g>
    </g>
    <g id="xtick_13">
     <g id="line2d_36">
      <path d="M 960.207955 456.66 
L 960.207955 27.65625 
" clip-path="url(#p571de68917)" style="fill: none; stroke: #cccccc; stroke-linecap: round"/>
     </g>
     <g id="text_19">
      <!-- 30 -->
      <g style="fill: #262626" transform="translate(954.090923 474.033594) scale(0.11 -0.11)">
       <defs>
        <path id="ArialMT-33" d="M 269 1209 
L 831 1284 
Q 928 806 1161 595 
Q 1394 384 1728 384 
Q 2125 384 2398 659 
Q 2672 934 2672 1341 
Q 2672 1728 2419 1979 
Q 2166 2231 1775 2231 
Q 1616 2231 1378 2169 
L 1441 2663 
Q 1497 2656 1531 2656 
Q 1891 2656 2178 2843 
Q 2466 3031 2466 3422 
Q 2466 3731 2256 3934 
Q 2047 4138 1716 4138 
Q 1388 4138 1169 3931 
Q 950 3725 888 3313 
L 325 3413 
Q 428 3978 793 4289 
Q 1159 4600 1703 4600 
Q 2078 4600 2393 4439 
Q 2709 4278 2876 4000 
Q 3044 3722 3044 3409 
Q 3044 3113 2884 2869 
Q 2725 2625 2413 2481 
Q 2819 2388 3044 2092 
Q 3269 1797 3269 1353 
Q 3269 753 2831 336 
Q 2394 -81 1725 -81 
Q 1122 -81 723 278 
Q 325 638 269 1209 
z
" transform="scale(0.015625)"/>
       </defs>
       <use xlink:href="#ArialMT-33"/>
       <use xlink:href="#ArialMT-30" transform="translate(55.615234 0)"/>
      </g>
     </g>
    </g>
    <g id="xtick_14">
     <g id="line2d_37">
      <path d="M 1001.385511 456.66 
L 1001.385511 27.65625 
" clip-path="url(#p571de68917)" style="fill: none; stroke: #cccccc; stroke-linecap: round"/>
     </g>
     <g id="text_20">
      <!-- 35 -->
      <g style="fill: #262626" transform="translate(995.26848 474.033594) scale(0.11 -0.11)">
       <use xlink:href="#ArialMT-33"/>
       <use xlink:href="#ArialMT-35" transform="translate(55.615234 0)"/>
      </g>
     </g>
    </g>
    <g id="xtick_15">
     <g id="line2d_38">
      <path d="M 1042.563068 456.66 
L 1042.563068 27.65625 
" clip-path="url(#p571de68917)" style="fill: none; stroke: #cccccc; stroke-linecap: round"/>
     </g>
     <g id="text_21">
      <!-- 40 -->
      <g style="fill: #262626" transform="translate(1036.446037 474.033594) scale(0.11 -0.11)">
       <use xlink:href="#ArialMT-34"/>
       <use xlink:href="#ArialMT-30" transform="translate(55.615234 0)"/>
      </g>
     </g>
    </g>
    <g id="xtick_16">
     <g id="line2d_39">
      <path d="M 1083.740625 456.66 
L 1083.740625 27.65625 
" clip-path="url(#p571de68917)" style="fill: none; stroke: #cccccc; stroke-linecap: round"/>
     </g>
     <g id="text_22">
      <!-- 45 -->
      <g style="fill: #262626" transform="translate(1077.623594 474.033594) scale(0.11 -0.11)">
       <use xlink:href="#ArialMT-34"/>
       <use xlink:href="#ArialMT-35" transform="translate(55.615234 0)"/>
      </g>
     </g>
    </g>
    <g id="xtick_17">
     <g id="line2d_40">
      <path d="M 1124.918182 456.66 
L 1124.918182 27.65625 
" clip-path="url(#p571de68917)" style="fill: none; stroke: #cccccc; stroke-linecap: round"/>
     </g>
     <g id="text_23">
      <!-- 50 -->
      <g style="fill: #262626" transform="translate(1118.801151 474.033594) scale(0.11 -0.11)">
       <use xlink:href="#ArialMT-35"/>
       <use xlink:href="#ArialMT-30" transform="translate(55.615234 0)"/>
      </g>
     </g>
    </g>
    <g id="xtick_18">
     <g id="line2d_41">
      <path d="M 1166.095739 456.66 
L 1166.095739 27.65625 
" clip-path="url(#p571de68917)" style="fill: none; stroke: #cccccc; stroke-linecap: round"/>
     </g>
     <g id="text_24">
      <!-- 55 -->
      <g style="fill: #262626" transform="translate(1159.978707 474.033594) scale(0.11 -0.11)">
       <use xlink:href="#ArialMT-35"/>
       <use xlink:href="#ArialMT-35" transform="translate(55.615234 0)"/>
      </g>
     </g>
    </g>
    <g id="xtick_19">
     <g id="line2d_42">
      <path d="M 1207.273295 456.66 
L 1207.273295 27.65625 
" clip-path="url(#p571de68917)" style="fill: none; stroke: #cccccc; stroke-linecap: round"/>
     </g>
     <g id="text_25">
      <!-- 60 -->
      <g style="fill: #262626" transform="translate(1201.156264 474.033594) scale(0.11 -0.11)">
       <use xlink:href="#ArialMT-36"/>
       <use xlink:href="#ArialMT-30" transform="translate(55.615234 0)"/>
      </g>
     </g>
    </g>
    <g id="xtick_20">
     <g id="line2d_43">
      <path d="M 1248.450852 456.66 
L 1248.450852 27.65625 
" clip-path="url(#p571de68917)" style="fill: none; stroke: #cccccc; stroke-linecap: round"/>
     </g>
     <g id="text_26">
      <!-- 65 -->
      <g style="fill: #262626" transform="translate(1242.333821 474.033594) scale(0.11 -0.11)">
       <use xlink:href="#ArialMT-36"/>
       <use xlink:href="#ArialMT-35" transform="translate(55.615234 0)"/>
      </g>
     </g>
    </g>
    <g id="text_27">
     <!-- Elapsed (ms) -->
     <g style="fill: #262626" transform="translate(957.808125 488.955469) scale(0.12 -0.12)">
      <use xlink:href="#ArialMT-45"/>
      <use xlink:href="#ArialMT-6c" transform="translate(66.699219 0)"/>
      <use xlink:href="#ArialMT-61" transform="translate(88.916016 0)"/>
      <use xlink:href="#ArialMT-70" transform="translate(144.53125 0)"/>
      <use xlink:href="#ArialMT-73" transform="translate(200.146484 0)"/>
      <use xlink:href="#ArialMT-65" transform="translate(250.146484 0)"/>
      <use xlink:href="#ArialMT-64" transform="translate(305.761719 0)"/>
      <use xlink:href="#ArialMT-20" transform="translate(361.376953 0)"/>
      <use xlink:href="#ArialMT-28" transform="translate(389.160156 0)"/>
      <use xlink:href="#ArialMT-6d" transform="translate(422.460938 0)"/>
      <use xlink:href="#ArialMT-73" transform="translate(505.761719 0)"/>
      <use xlink:href="#ArialMT-29" transform="translate(555.761719 0)"/>
     </g>
    </g>
   </g>
   <g id="matplotlib.axis_4">
    <g id="ytick_4">
     <g id="line2d_44">
      <path d="M 703.26 437.239034 
L 1283.04 437.239034 
" clip-path="url(#p571de68917)" style="fill: none; stroke: #cccccc; stroke-linecap: round"/>
     </g>
     <g id="text_28">
      <!-- 0 -->
      <g style="fill: #262626" transform="translate(687.642969 441.175831) scale(0.11 -0.11)">
       <use xlink:href="#ArialMT-30"/>
      </g>
     </g>
    </g>
    <g id="ytick_5">
     <g id="line2d_45">
      <path d="M 703.26 278.829851 
L 1283.04 278.829851 
" clip-path="url(#p571de68917)" style="fill: none; stroke: #cccccc; stroke-linecap: round"/>
     </g>
     <g id="text_29">
      <!-- 2000 -->
      <g style="fill: #262626" transform="translate(669.291875 282.766648) scale(0.11 -0.11)">
       <use xlink:href="#ArialMT-32"/>
       <use xlink:href="#ArialMT-30" transform="translate(55.615234 0)"/>
       <use xlink:href="#ArialMT-30" transform="translate(111.230469 0)"/>
       <use xlink:href="#ArialMT-30" transform="translate(166.845703 0)"/>
      </g>
     </g>
    </g>
    <g id="ytick_6">
     <g id="line2d_46">
      <path d="M 703.26 120.420668 
L 1283.04 120.420668 
" clip-path="url(#p571de68917)" style="fill: none; stroke: #cccccc; stroke-linecap: round"/>
     </g>
     <g id="text_30">
      <!-- 4000 -->
      <g style="fill: #262626" transform="translate(669.291875 124.357465) scale(0.11 -0.11)">
       <use xlink:href="#ArialMT-34"/>
       <use xlink:href="#ArialMT-30" transform="translate(55.615234 0)"/>
       <use xlink:href="#ArialMT-30" transform="translate(111.230469 0)"/>
       <use xlink:href="#ArialMT-30" transform="translate(166.845703 0)"/>
      </g>
     </g>
    </g>
    <g id="text_31">
     <!-- Count -->
     <g style="fill: #262626" transform="translate(662.906875 258.167812) rotate(-90) scale(0.12 -0.12)">
      <use xlink:href="#ArialMT-43"/>
      <use xlink:href="#ArialMT-6f" transform="translate(72.216797 0)"/>
      <use xlink:href="#ArialMT-75" transform="translate(127.832031 0)"/>
      <use xlink:href="#ArialMT-6e" transform="translate(183.447266 0)"/>
      <use xlink:href="#ArialMT-74" transform="translate(239.0625 0)"/>
     </g>
    </g>
   </g>
   <g id="PathCollection_1">
    <defs>
     <path id="m15b9cf0678" d="M 0 5 
C 1.326016 5 2.597899 4.473168 3.535534 3.535534 
C 4.473168 2.597899 5 1.326016 5 0 
C 5 -1.326016 4.473168 -2.597899 3.535534 -3.535534 
C 2.597899 -4.473168 1.326016 -5 0 -5 
C -1.326016 -5 -2.597899 -4.473168 -3.535534 -3.535534 
C -4.473168 -2.597899 -5 -1.326016 -5 0 
C -5 1.326016 -4.473168 2.597899 -3.535534 3.535534 
C -2.597899 4.473168 -1.326016 5 0 5 
z
" style="stroke: #ffffff; stroke-width: 0.8"/>
    </defs>
    <g clip-path="url(#p571de68917)">
     <use xlink:href="#m15b9cf0678" x="729.613636" y="132.776584" style="fill: #4878d0; stroke: #ffffff; stroke-width: 0.8"/>
     <use xlink:href="#m15b9cf0678" x="737.849148" y="47.15642" style="fill: #4878d0; stroke: #ffffff; stroke-width: 0.8"/>
     <use xlink:href="#m15b9cf0678" x="746.084659" y="395.41901" style="fill: #4878d0; stroke: #ffffff; stroke-width: 0.8"/>
     <use xlink:href="#m15b9cf0678" x="754.32017" y="413.002429" style="fill: #4878d0; stroke: #ffffff; stroke-width: 0.8"/>
     <use xlink:href="#m15b9cf0678" x="762.555682" y="424.170277" style="fill: #4878d0; stroke: #ffffff; stroke-width: 0.8"/>
     <use xlink:href="#m15b9cf0678" x="770.791193" y="429.793803" style="fill: #4878d0; stroke: #ffffff; stroke-width: 0.8"/>
     <use xlink:href="#m15b9cf0678" x="779.026705" y="434.466873" style="fill: #4878d0; stroke: #ffffff; stroke-width: 0.8"/>
     <use xlink:href="#m15b9cf0678" x="787.262216" y="434.387669" style="fill: #4878d0; stroke: #ffffff; stroke-width: 0.8"/>
     <use xlink:href="#m15b9cf0678" x="795.497727" y="435.813351" style="fill: #4878d0; stroke: #ffffff; stroke-width: 0.8"/>
     <use xlink:href="#m15b9cf0678" x="803.733239" y="436.209374" style="fill: #4878d0; stroke: #ffffff; stroke-width: 0.8"/>
     <use xlink:href="#m15b9cf0678" x="811.96875" y="436.684602" style="fill: #4878d0; stroke: #ffffff; stroke-width: 0.8"/>
     <use xlink:href="#m15b9cf0678" x="820.204261" y="436.763807" style="fill: #4878d0; stroke: #ffffff; stroke-width: 0.8"/>
     <use xlink:href="#m15b9cf0678" x="828.439773" y="436.763807" style="fill: #4878d0; stroke: #ffffff; stroke-width: 0.8"/>
     <use xlink:href="#m15b9cf0678" x="836.675284" y="437.15983" style="fill: #4878d0; stroke: #ffffff; stroke-width: 0.8"/>
     <use xlink:href="#m15b9cf0678" x="844.910795" y="437.080625" style="fill: #4878d0; stroke: #ffffff; stroke-width: 0.8"/>
     <use xlink:href="#m15b9cf0678" x="853.146307" y="437.15983" style="fill: #4878d0; stroke: #ffffff; stroke-width: 0.8"/>
     <use xlink:href="#m15b9cf0678" x="861.381818" y="437.15983" style="fill: #4878d0; stroke: #ffffff; stroke-width: 0.8"/>
     <use xlink:href="#m15b9cf0678" x="869.61733" y="437.15983" style="fill: #4878d0; stroke: #ffffff; stroke-width: 0.8"/>
     <use xlink:href="#m15b9cf0678" x="894.323864" y="437.15983" style="fill: #4878d0; stroke: #ffffff; stroke-width: 0.8"/>
     <use xlink:href="#m15b9cf0678" x="910.794886" y="437.15983" style="fill: #4878d0; stroke: #ffffff; stroke-width: 0.8"/>
     <use xlink:href="#m15b9cf0678" x="919.030398" y="437.00142" style="fill: #4878d0; stroke: #ffffff; stroke-width: 0.8"/>
     <use xlink:href="#m15b9cf0678" x="935.50142" y="437.15983" style="fill: #4878d0; stroke: #ffffff; stroke-width: 0.8"/>
     <use xlink:href="#m15b9cf0678" x="968.443466" y="437.080625" style="fill: #4878d0; stroke: #ffffff; stroke-width: 0.8"/>
     <use xlink:href="#m15b9cf0678" x="1059.034091" y="437.15983" style="fill: #4878d0; stroke: #ffffff; stroke-width: 0.8"/>
     <use xlink:href="#m15b9cf0678" x="1116.68267" y="437.15983" style="fill: #4878d0; stroke: #ffffff; stroke-width: 0.8"/>
     <use xlink:href="#m15b9cf0678" x="1256.686364" y="437.15983" style="fill: #4878d0; stroke: #ffffff; stroke-width: 0.8"/>
    </g>
   </g>
   <g id="patch_34">
    <path d="M 703.26 456.66 
L 703.26 27.65625 
" style="fill: none; stroke: #cccccc; stroke-width: 1.25; stroke-linejoin: miter; stroke-linecap: square"/>
   </g>
   <g id="patch_35">
    <path d="M 1283.04 456.66 
L 1283.04 27.65625 
" style="fill: none; stroke: #cccccc; stroke-width: 1.25; stroke-linejoin: miter; stroke-linecap: square"/>
   </g>
   <g id="patch_36">
    <path d="M 703.26 456.66 
L 1283.04 456.66 
" style="fill: none; stroke: #cccccc; stroke-width: 1.25; stroke-linejoin: miter; stroke-linecap: square"/>
   </g>
   <g id="patch_37">
    <path d="M 703.26 27.65625 
L 1283.04 27.65625 
" style="fill: none; stroke: #cccccc; stroke-width: 1.25; stroke-linejoin: miter; stroke-linecap: square"/>
   </g>
   <g id="text_32">
    <!-- poll_ws_multithread Time Consumption (10000 pieces of data) -->
    <g style="fill: #262626" transform="translate(827.070938 21.65625) scale(0.12 -0.12)">
     <use xlink:href="#ArialMT-70"/>
     <use xlink:href="#ArialMT-6f" transform="translate(55.615234 0)"/>
     <use xlink:href="#ArialMT-6c" transform="translate(111.230469 0)"/>
     <use xlink:href="#ArialMT-6c" transform="translate(133.447266 0)"/>
     <use xlink:href="#ArialMT-5f" transform="translate(155.664062 0)"/>
     <use xlink:href="#ArialMT-77" transform="translate(211.279297 0)"/>
     <use xlink:href="#ArialMT-73" transform="translate(283.496094 0)"/>
     <use xlink:href="#ArialMT-5f" transform="translate(333.496094 0)"/>
     <use xlink:href="#ArialMT-6d" transform="translate(389.111328 0)"/>
     <use xlink:href="#ArialMT-75" transform="translate(472.412109 0)"/>
     <use xlink:href="#ArialMT-6c" transform="translate(528.027344 0)"/>
     <use xlink:href="#ArialMT-74" transform="translate(550.244141 0)"/>
     <use xlink:href="#ArialMT-69" transform="translate(578.027344 0)"/>
     <use xlink:href="#ArialMT-74" transform="translate(600.244141 0)"/>
     <use xlink:href="#ArialMT-68" transform="translate(628.027344 0)"/>
     <use xlink:href="#ArialMT-72" transform="translate(683.642578 0)"/>
     <use xlink:href="#ArialMT-65" transform="translate(716.943359 0)"/>
     <use xlink:href="#ArialMT-61" transform="translate(772.558594 0)"/>
     <use xlink:href="#ArialMT-64" transform="translate(828.173828 0)"/>
     <use xlink:href="#ArialMT-20" transform="translate(883.789062 0)"/>
     <use xlink:href="#ArialMT-54" transform="translate(909.822266 0)"/>
     <use xlink:href="#ArialMT-69" transform="translate(967.15625 0)"/>
     <use xlink:href="#ArialMT-6d" transform="translate(989.373047 0)"/>
     <use xlink:href="#ArialMT-65" transform="translate(1072.673828 0)"/>
     <use xlink:href="#ArialMT-20" transform="translate(1128.289062 0)"/>
     <use xlink:href="#ArialMT-43" transform="translate(1156.072266 0)"/>
     <use xlink:href="#ArialMT-6f" transform="translate(1228.289062 0)"/>
     <use xlink:href="#ArialMT-6e" transform="translate(1283.904297 0)"/>
     <use xlink:href="#ArialMT-73" transform="translate(1339.519531 0)"/>
     <use xlink:href="#ArialMT-75" transform="translate(1389.519531 0)"/>
     <use xlink:href="#ArialMT-6d" transform="translate(1445.134766 0)"/>
     <use xlink:href="#ArialMT-70" transform="translate(1528.435547 0)"/>
     <use xlink:href="#ArialMT-74" transform="translate(1584.050781 0)"/>
     <use xlink:href="#ArialMT-69" transform="translate(1611.833984 0)"/>
     <use xlink:href="#ArialMT-6f" transform="translate(1634.050781 0)"/>
     <use xlink:href="#ArialMT-6e" transform="translate(1689.666016 0)"/>
     <use xlink:href="#ArialMT-20" transform="translate(1745.28125 0)"/>
     <use xlink:href="#ArialMT-28" transform="translate(1773.064453 0)"/>
     <use xlink:href="#ArialMT-31" transform="translate(1806.365234 0)"/>
     <use xlink:href="#ArialMT-30" transform="translate(1861.980469 0)"/>
     <use xlink:href="#ArialMT-30" transform="translate(1917.595703 0)"/>
     <use xlink:href="#ArialMT-30" transform="translate(1973.210938 0)"/>
     <use xlink:href="#ArialMT-30" transform="translate(2028.826172 0)"/>
     <use xlink:href="#ArialMT-20" transform="translate(2084.441406 0)"/>
     <use xlink:href="#ArialMT-70" transform="translate(2112.224609 0)"/>
     <use xlink:href="#ArialMT-69" transform="translate(2167.839844 0)"/>
     <use xlink:href="#ArialMT-65" transform="translate(2190.056641 0)"/>
     <use xlink:href="#ArialMT-63" transform="translate(2245.671875 0)"/>
     <use xlink:href="#ArialMT-65" transform="translate(2295.671875 0)"/>
     <use xlink:href="#ArialMT-73" transform="translate(2351.287109 0)"/>
     <use xlink:href="#ArialMT-20" transform="translate(2401.287109 0)"/>
     <use xlink:href="#ArialMT-6f" transform="translate(2429.070312 0)"/>
     <use xlink:href="#ArialMT-66" transform="translate(2484.685547 0)"/>
     <use xlink:href="#ArialMT-20" transform="translate(2512.46875 0)"/>
     <use xlink:href="#ArialMT-64" transform="translate(2540.251953 0)"/>
     <use xlink:href="#ArialMT-61" transform="translate(2595.867188 0)"/>
     <use xlink:href="#ArialMT-74" transform="translate(2651.482422 0)"/>
     <use xlink:href="#ArialMT-61" transform="translate(2679.265625 0)"/>
     <use xlink:href="#ArialMT-29" transform="translate(2734.880859 0)"/>
    </g>
   </g>
  </g>
 </g>
 <defs>
  <clipPath id="pb871a805a5">
   <rect x="61.74" y="27.65625" width="579.78" height="429.00375"/>
  </clipPath>
  <clipPath id="p571de68917">
   <rect x="703.26" y="27.65625" width="579.78" height="429.00375"/>
  </clipPath>
 </defs>
</svg>
